<svg width="72" height="88" xmlns="http://www.w3.org/2000/svg" xmlns:xlink="http://www.w3.org/1999/xlink" xml:space="preserve" overflow="hidden"><defs><clipPath id="clip0"><rect x="612" y="217" width="72" height="88"/></clipPath></defs><g clip-path="url(#clip0)" transform="translate(-612 -217)"><g><path d="M435.496 195.858C436.108 195.858 436.71 195.914 437.306 196.038 437.903 196.156 438.484 196.331 439.045 196.568 439.605 196.799 440.14 197.087 440.644 197.427 441.153 197.766 441.621 198.152 442.048 198.584 442.48 199.016 442.866 199.489 443.201 199.993 443.54 200.502 443.828 201.042 444.059 201.603 444.291 202.169 444.466 202.755 444.584 203.352 444.702 203.953 444.764 204.555 444.764 205.167L444.764 268.559C444.764 269.171 444.702 269.778 444.584 270.38 444.466 270.976 444.291 271.557 444.059 272.123 443.828 272.689 443.54 273.224 443.201 273.733 442.866 274.242 442.48 274.715 442.048 275.147 441.621 275.579 441.153 275.965 440.644 276.305 440.14 276.644 439.605 276.932 439.045 277.164 438.484 277.4 437.903 277.575 437.306 277.693 436.71 277.812 436.108 277.873 435.496 277.873L388.316 277.873C387.709 277.873 387.102 277.817 386.506 277.699 385.909 277.58 385.328 277.4 384.767 277.169 384.201 276.937 383.667 276.649 383.162 276.31 382.653 275.97 382.185 275.585 381.753 275.153 381.321 274.721 380.935 274.247 380.601 273.738 380.262 273.229 379.974 272.694 379.742 272.128 379.506 271.563 379.331 270.981 379.212 270.38 379.094 269.778 379.032 269.171 379.032 268.559L379.032 216.174C379.048 215.001 379.48 214.009 380.328 213.201L396.36 197.087C397.157 196.285 398.119 195.878 399.251 195.858Z" fill="#FFFFFF" transform="matrix(1 0 0 1.01017 235.207 20.5899)"/></g><g><path d="M396.293 197.087C396.648 196.732 397.06 196.455 397.517 196.249L397.517 205.579C397.517 206.381 397.44 207.173 397.286 207.955 397.132 208.742 396.905 209.503 396.602 210.244 396.298 210.984 395.928 211.689 395.486 212.353 395.049 213.021 394.545 213.638 393.984 214.204 393.423 214.77 392.811 215.279 392.153 215.727 391.495 216.174 390.795 216.555 390.06 216.863 389.329 217.172 388.568 217.408 387.791 217.568 387.01 217.727 386.223 217.81 385.426 217.815L379.032 217.815 379.032 216.102C379.068 214.96 379.5 213.988 380.328 213.201Z" fill="#A6A6A6" transform="matrix(1 0 0 1.01017 235.207 20.5899)"/></g><path d="M379.423 214.43C379.624 213.968 379.902 213.556 380.256 213.201L396.293 197.087C396.648 196.732 397.06 196.455 397.517 196.249L397.517 205.116C397.517 205.728 397.456 206.335 397.337 206.937 397.219 207.533 397.044 208.114 396.808 208.68 396.576 209.246 396.293 209.781 395.954 210.29 395.614 210.799 395.234 211.272 394.802 211.704 394.37 212.137 393.902 212.522 393.398 212.862 392.894 213.201 392.359 213.489 391.793 213.721 391.232 213.957 390.651 214.132 390.055 214.25 389.458 214.369 388.856 214.43 388.249 214.43Z" fill="#003566" transform="matrix(1 0 0 1.01017 235.207 20.5899)"/><path d="M405.166 255.351 397.43 247.579C396.947 247.116 396.556 246.581 396.263 245.98 395.964 245.378 395.779 244.745 395.707 244.077 395.63 243.413 395.671 242.755 395.825 242.102 395.985 241.448 396.247 240.841 396.612 240.281 396.844 239.957 397.106 239.658 397.404 239.391 397.697 239.124 398.016 238.892 398.366 238.692 398.711 238.496 399.071 238.337 399.451 238.218 399.832 238.1 400.223 238.023 400.619 237.992 401.015 237.956 401.411 237.966 401.802 238.018 402.198 238.074 402.584 238.167 402.954 238.306 403.329 238.445 403.684 238.62 404.019 238.836 404.353 239.052 404.662 239.298 404.944 239.581L407.532 242.23 418.549 231.157C419.006 230.673 419.536 230.282 420.133 229.984 420.729 229.691 421.362 229.506 422.02 229.428 422.684 229.356 423.342 229.398 423.985 229.557 424.633 229.716 425.235 229.984 425.79 230.354 426.114 230.586 426.413 230.848 426.68 231.146 426.948 231.439 427.179 231.763 427.38 232.113 427.575 232.458 427.735 232.823 427.853 233.204 427.971 233.589 428.048 233.98 428.079 234.376 428.115 234.777 428.105 235.173 428.048 235.57 427.997 235.966 427.899 236.356 427.765 236.732 427.626 237.107 427.447 237.462 427.236 237.797 427.02 238.136 426.768 238.445 426.485 238.728L409.944 255.351C409.625 255.67 409.26 255.911 408.848 256.081 408.432 256.251 408 256.338 407.557 256.338 407.11 256.338 406.678 256.251 406.266 256.081 405.85 255.911 405.484 255.67 405.166 255.351Z" fill="#66AD5C" transform="matrix(1 0 0 1.01017 235.207 20.5899)"/><g><path d="M421.254 227.458 398.371 249.683 407.48 258.786 437.491 227.458Z" fill="#88A53D" transform="matrix(1 0 0 1.01017 235.207 20.5899)"/></g><g><path d="M407.326 258.848 407.316 246.494 407.316 232.838 393.866 232.838 393.866 245.203Z" fill="#556132" transform="matrix(1 0 0 1.01017 235.207 20.5899)"/></g><path d="M6.62461-4.42326C3.2763-8.08531 1.60472-12.56 1.60472-17.8576 1.60472-23.1655 3.2763-27.6557 6.62461-31.3331 9.96777-35.0055 14.2264-36.8468 19.4006-36.8468 24.1428-36.8468 28.0517-35.3552 31.1274-32.3824L31.1274-60.0123 43.4714-60.0123 43.4714 0 31.2714 0 31.2714-4.05294 31.1274-4.05294C28.0517-0.64806 24.1428 1.04924 19.4006 1.04924 14.2264 1.04924 9.96777-0.7715 6.62461-4.42326ZM17.1376-23.9268C15.5328-22.3478 14.7305-20.3264 14.7305-17.8576 14.7305-15.3991 15.4968-13.3932 17.0347-11.8297 18.5674-10.2661 20.5939-9.48429 23.1038-9.48429 25.516-9.48429 27.4962-10.2712 29.0495-11.8502 30.6131-13.4395 31.3949-15.4403 31.3949-17.8576 31.3949-20.3264 30.5925-22.3478 28.9878-23.9268 27.3831-25.516 25.4183-26.3133 23.1038-26.3133 20.7276-26.3133 18.7423-25.516 17.1376-23.9268Z" fill="#003566" transform="matrix(1 0 0 1.01017 302.706 279.223)"/><path d="M7.57098-4.25868C3.59004-7.79728 1.60472-12.3286 1.60472-17.8576 1.60472-23.397 3.67233-27.9437 7.81786-31.4977 11.9582-35.0621 17.0758-36.8468 23.1655-36.8468 29.173-36.8468 34.234-35.0569 38.3486-31.4772 42.4633-27.8974 44.5206-23.3558 44.5206-17.8576 44.5206-12.3697 42.5045-7.84357 38.4721-4.27925 34.45-0.725209 29.3478 1.04924 23.1655 1.04924 16.7467 1.04924 11.5468-0.720066 7.57098-4.25868ZM17.1376-23.9268C15.5328-22.3478 14.7305-20.3264 14.7305-17.8576 14.7305-15.3991 15.4968-13.3932 17.0347-11.8297 18.5674-10.2661 20.5939-9.48429 23.1038-9.48429 25.516-9.48429 27.4962-10.2712 29.0495-11.8502 30.6131-13.4395 31.3949-15.4403 31.3949-17.8576 31.3949-20.3264 30.5925-22.3478 28.9878-23.9268 27.3831-25.516 25.4183-26.3133 23.1038-26.3133 20.7276-26.3133 18.7423-25.516 17.1376-23.9268Z" fill="#003566" transform="matrix(1 0 0 1.01017 347.291 279.223)"/><path d="M23.2478-26.7247C20.9128-26.7247 18.912-25.8606 17.2404-24.1325 15.5637-22.4146 14.7305-20.3521 14.7305-17.9399 14.7305-15.4711 15.5637-13.3727 17.2404-11.6445 18.912-9.92662 20.9128-9.07283 23.2478-9.07283 24.3588-9.07283 25.4132-9.20656 26.4161-9.48429 27.4139-9.77232 28.1494-10.0501 28.6175-10.3278L29.2347-10.7393 33.4316-2.1602C33.1025-1.9236 32.6396-1.63043 32.0532-1.27555 31.4772-0.930942 30.1502-0.457756 28.0826 0.144013 26.0098 0.745782 23.7879 1.04924 21.4168 1.04924 16.1603 1.04924 11.5468-0.792072 7.57098-4.48498 3.59004-8.18818 1.60472-12.6217 1.60472-17.7959 1.60472-23.0061 3.59004-27.4859 7.57098-31.2303 11.5468-34.9746 16.1603-36.8468 21.4168-36.8468 23.7879-36.8468 25.9738-36.5639 27.9797-36.0033 29.9805-35.453 31.4-34.8975 32.2384-34.3369L33.4316-33.4933 29.2347-25.0583C27.6968-26.1692 25.7012-26.7247 23.2478-26.7247Z" fill="#003566" transform="matrix(1 0 0 1.01017 390.341 279.223)"/><path d="M15.8414-35.7976 15.8414-18.7629C15.8414-15.2345 16.3764-12.7246 17.4462-11.233 18.516-9.75175 20.3264-9.01111 22.8775-9.01111 25.4389-9.01111 27.2596-9.75175 28.3294-11.233 29.3993-12.7246 29.9342-15.2345 29.9342-18.7629L29.9342-35.7976 42.2987-35.7976 42.2987-15.7797C42.2987-9.81347 40.7454-5.51365 37.6492-2.88026 34.5477-0.257166 29.6256 1.04924 22.8775 1.04924 16.1398 1.04924 11.2227-0.257166 8.12646-2.88026 5.04046-5.51365 3.49746-9.81347 3.49746-15.7797L3.49746-35.7976Z" fill="#003566" transform="matrix(1 0 0 1.01017 421.53 279.223)"/><path d="M19.7504-36.8468C21.7923-36.8468 23.8136-36.6102 25.8195-36.1473 27.8203-35.6793 29.3067-35.2112 30.2839-34.7483L31.7446-34.0488 27.7122-25.9635C24.9143-27.4448 22.2603-28.1854 19.7504-28.1854 18.3514-28.1854 17.3536-28.0311 16.7672-27.7328 16.1912-27.4294 15.9032-26.8585 15.9032-26.0252 15.9032-25.8452 15.9237-25.6601 15.9649-25.4698 16.0163-25.2897 16.114-25.12 16.2529-24.9554 16.4021-24.7908 16.5307-24.6468 16.6438-24.5234 16.7518-24.4102 16.9421-24.2816 17.2199-24.1325 17.5079-23.9936 17.7342-23.8908 17.8988-23.8239 18.0634-23.7519 18.3308-23.649 18.7011-23.5153 19.0715-23.3764 19.3441-23.2736 19.5241-23.2067 19.7144-23.1347 20.0281-23.0267 20.4704-22.8775 20.9231-22.7386 21.2625-22.6512 21.4991-22.6101 22.9392-22.1832 24.1942-21.7151 25.264-21.2111 26.3338-20.7019 27.4551-20.0024 28.638-19.1126 29.8313-18.2331 30.7468-17.117 31.3949-15.7592 32.0532-14.4116 32.3824-12.884 32.3824-11.1713 32.3824-3.02428 26.7299 1.04924 15.43 1.04924 12.8635 1.04924 10.4307 0.658346 8.12646-0.12344 5.82225-0.915512 4.16095-1.71273 3.14772-2.50994L1.60472-3.76492 6.62461-12.2205C6.99493-11.8914 7.4784-11.5005 8.08531-11.0479 8.70251-10.6055 9.79804-10.0038 11.377-9.23742 12.9509-8.46592 14.3242-8.08531 15.4917-8.08531 18.0531-8.08531 19.3389-8.94939 19.3389-10.6775 19.3389-11.4696 19.0097-12.0868 18.3514-12.5291 17.7033-12.9663 16.6027-13.4601 15.0391-14.0104 13.4755-14.571 12.2514-15.0854 11.377-15.5534 9.13969-16.7158 7.37039-18.0325 6.06913-19.5035 4.76272-20.9693 4.11466-22.9084 4.11466-25.3257 4.11466-28.9569 5.51879-31.7858 8.33219-33.8019 11.1559-35.8284 14.9619-36.8468 19.7504-36.8468Z" fill="#88A53D" transform="matrix(1 0 0 1.01017 464.227 279.223)"/><path d="M6.62461-4.42326C3.2763-8.08531 1.60472-12.56 1.60472-17.8576 1.60472-23.1655 3.2763-27.6557 6.62461-31.3331 9.96777-35.0055 14.2264-36.8468 19.4006-36.8468 24.1428-36.8468 28.0517-35.3552 31.1274-32.3824L31.1274-35.7976 43.4714-35.7976 43.4714 0 31.2714 0 31.2714-4.05294 31.1274-4.05294C28.0517-0.64806 24.1428 1.04924 19.4006 1.04924 14.2264 1.04924 9.96777-0.7715 6.62461-4.42326ZM17.1376-23.9268C15.5328-22.3478 14.7305-20.3264 14.7305-17.8576 14.7305-15.3991 15.4968-13.3932 17.0347-11.8297 18.5674-10.2661 20.5939-9.48429 23.1038-9.48429 25.516-9.48429 27.4962-10.2712 29.0495-11.8502 30.6131-13.4395 31.3949-15.4403 31.3949-17.8576 31.3949-20.3264 30.5925-22.3478 28.9878-23.9268 27.3831-25.516 25.4183-26.3133 23.1038-26.3133 20.7276-26.3133 18.7423-25.516 17.1376-23.9268Z" fill="#88A53D" transform="matrix(1 0 0 1.01017 495.485 279.223)"/><path d="M6.27486-35.7976 6.27486-43.4097C6.32629-48.7587 7.58126-53.038 10.0398-56.2474 12.5086-59.4569 15.9289-61.0616 20.3059-61.0616 22.1677-61.0616 23.9473-60.7941 25.6343-60.2592 27.3316-59.7243 28.5609-59.174 29.317-58.6134L30.4896-57.8521 26.1692-49.1291C25.0583-49.772 23.8239-50.096 22.4661-50.096 20.9282-50.096 19.9047-49.5714 19.4006-48.5324 18.8914-47.4883 18.6394-45.6625 18.6394-43.0599L18.6394-35.7976 26.8687-35.7976 26.8687-26.375 18.6394-26.375 18.6394 0 6.27486 0 6.27486-26.375 1.11096-26.375 1.11096-35.7976Z" fill="#88A53D" transform="matrix(1 0 0 1.01017 540.07 279.223)"/><path d="M40.406-16.1912 14.4425-16.1912C14.4425-13.6813 15.2551-11.8142 16.8907-10.5953 18.5211-9.38657 20.2904-8.7848 22.1986-8.7848 24.1994-8.7848 25.7784-9.05226 26.9305-9.58716 28.0929-10.1221 29.425-11.1816 30.9217-12.776L39.8505-8.31162C36.1164-2.06762 29.9342 1.04924 21.2934 1.04924 15.8877 1.04924 11.2536-0.792072 7.38582-4.48498 3.52832-8.18818 1.60472-12.6423 1.60472-17.8576 1.60472-23.0678 3.52832-27.5322 7.38582-31.2509 11.2536-34.9798 15.8877-36.8468 21.2934-36.8468 26.9562-36.8468 31.5646-35.2061 35.1186-31.9298 38.683-28.6483 40.4677-23.9576 40.4677-17.8576 40.4677-17.0193 40.4471-16.4638 40.406-16.1912ZM14.7922-23.0215 28.4117-23.0215C28.1237-24.8834 27.3831-26.3184 26.1898-27.3214 25.0069-28.3192 23.4947-28.8232 21.6431-28.8232 19.5858-28.8232 17.9502-28.2883 16.7467-27.2185 15.538-26.1487 14.8848-24.7497 14.7922-23.0215Z" fill="#88A53D" transform="matrix(1 0 0 1.01017 563.165 279.223)"/><path d="M3.51804 0.0822932C2.90084 0.0822932 2.36593-0.0411466 1.91332-0.288026 1.47099-0.545192 1.14182-0.874365 0.925799-1.27555 0.704636-1.68701 0.596626-2.10876 0.596626-2.55109L0.596626-2.61281 1.68701-2.61281 1.68701-2.55109C1.68701-2.28878 1.74873-2.02133 1.87217-1.74873 1.99561-1.48642 2.19106-1.26526 2.4688-1.09039 2.75682-0.910369 3.11171-0.822932 3.53861-0.822932 4.04265-0.822932 4.46441-0.951515 4.79358-1.21383 5.12275-1.47099 5.28734-1.82074 5.28734-2.26306 5.28734-2.63338 5.1639-2.92655 4.91702-3.14772 4.68043-3.36374 4.37183-3.50775 3.99122-3.57976L2.81854-3.80606C1.47099-4.09409 0.802359-4.79872 0.802359-5.92511 0.802359-6.37773 0.910369-6.77376 1.13153-7.11836 1.34755-7.47325 1.65615-7.74071 2.05733-7.92072 2.45337-8.11103 2.91112-8.20875 3.43574-8.20875 4.02208-8.20875 4.52613-8.08531 4.93759-7.83843 5.35935-7.60184 5.67823-7.29324 5.88397-6.91263 6.09999-6.54231 6.21314-6.15656 6.21314-5.76053L6.21314-5.69881 5.12275-5.69881 5.12275-5.73995C5.12275-5.9714 5.06618-6.20285 4.95817-6.43945 4.84502-6.68633 4.65985-6.8972 4.40269-7.07722 4.15581-7.25209 3.81635-7.34467 3.3946-7.34467 2.91112-7.34467 2.53052-7.2058 2.24249-6.93321 1.95446-6.67089 1.81045-6.33658 1.81045-5.92511 1.81045-5.59594 1.91846-5.3182 2.13962-5.10218 2.37107-4.89645 2.67453-4.75243 3.04485-4.67014L4.11466-4.46441C5.58051-4.16095 6.31601-3.44089 6.31601-2.30421 6.31601-1.83617 6.19771-1.41956 5.96626-1.04924 5.72967-0.689206 5.40049-0.411466 4.97874-0.205733 4.55184-0.0102867 4.06323 0.0822932 3.51804 0.0822932Z" fill="#001D3D" transform="matrix(1 0 0 1.01017 305.107 298.601)"/><path d="M0.946372-6.04855 1.93389-6.04855 1.93389 0 0.946372 0ZM1.41956-7.18008C1.23954-7.18008 1.09039-7.2418 0.966946-7.36524 0.843506-7.48868 0.781786-7.63784 0.781786-7.81786 0.781786-7.99273 0.843506-8.14703 0.966946-8.27047 1.09039-8.39391 1.23954-8.45563 1.41956-8.45563 1.60986-8.45563 1.7693-8.39391 1.89274-8.27047 2.01618-8.14703 2.0779-7.99273 2.0779-7.81786 2.0779-7.63784 2.01618-7.48868 1.89274-7.36524 1.7693-7.2418 1.60986-7.18008 1.41956-7.18008Z" fill="#001D3D" transform="matrix(1 0 0 1.01017 312.722 298.601)"/><path d="M2.92141 0.0822932C2.43794 0.0822932 2.01618-0.0102867 1.64586-0.205733 1.28583-0.411466 1.01324-0.663489 0.822932-0.966946 0.642916-1.26526 0.555479-1.58929 0.555479-1.93389L0.555479-1.99561 1.543-1.99561 1.543-1.93389C1.543-1.73844 1.58929-1.54814 1.68701-1.35784 1.79502-1.17782 1.95961-1.02867 2.18077-0.905226 2.39679-0.792072 2.6591-0.740639 2.96256-0.740639 3.33288-0.740639 3.63119-0.828075 3.86778-1.00809 4.11466-1.18297 4.2381-1.42985 4.2381-1.74873 4.2381-2.0059 4.14038-2.21163 3.95008-2.36593 3.77006-2.51509 3.53861-2.61281 3.25058-2.65396L2.44822-2.7774C1.95446-2.85969 1.53271-3.02942 1.19325-3.29173 0.864079-3.5489 0.699493-3.93464 0.699493-4.44383 0.699493-5.00446 0.89494-5.4365 1.29612-5.73995 1.70758-6.0537 2.22192-6.21314 2.83912-6.21314 3.30202-6.21314 3.7032-6.12056 4.03237-5.94569 4.37183-5.7811 4.63414-5.55479 4.81415-5.26677 4.98903-4.98903 5.08161-4.69071 5.08161-4.36154L5.08161-4.32039 4.09409-4.32039 4.09409-4.34097C4.09409-4.49012 4.05294-4.64957 3.97065-4.81415 3.88836-4.98903 3.74949-5.13304 3.55918-5.24619 3.36374-5.36963 3.11686-5.43135 2.81854-5.43135 2.44822-5.43135 2.14991-5.33877 1.93389-5.1639 1.71273-4.98388 1.60472-4.75243 1.60472-4.46441 1.60472-4.22782 1.69215-4.03237 1.87217-3.86778 2.04704-3.71348 2.26821-3.6209 2.53052-3.57976L3.3946-3.43574C3.89864-3.35345 4.32554-3.17858 4.67014-2.92141 5.0096-2.6591 5.18447-2.26821 5.18447-1.74873 5.18447-1.3887 5.08675-1.06981 4.89645-0.781786 4.701-0.504045 4.43355-0.293169 4.09409-0.144013 3.74949 0.00514333 3.35859 0.0822932 2.92141 0.0822932Z" fill="#001D3D" transform="matrix(1 0 0 1.01017 316.328 298.601)"/><path d="M2.48937-5.26677 2.48937-1.74873C2.48937-1.4607 2.49451-1.24468 2.50994-1.11096 2.53566-0.987519 2.61281-0.884652 2.73625-0.802359 2.85969-0.720066 3.04999-0.678919 3.3123-0.678919 3.50261-0.678919 3.7032-0.704636 3.90893-0.761212L3.90893-0.0617199C3.85235-0.03086 3.73406-0.0102867 3.55918 0 3.37917 0.0257166 3.19401 0.0411466 3.0037 0.0411466 2.56138 0.0411466 2.2322-0.0205733 2.01618-0.144013 1.79502-0.267453 1.65101-0.437182 1.58414-0.658346 1.52757-0.874365 1.50185-1.16239 1.50185-1.52242L1.50185-5.26677 0.37032-5.26677 0.37032-6.04855 1.50185-6.04855 1.50185-8.04416 2.48937-8.04416 2.48937-6.04855 3.90893-6.04855 3.90893-5.26677Z" fill="#001D3D" transform="matrix(1 0 0 1.01017 322.759 298.601)"/><path d="M3.41517 0.0822932C2.79797 0.0822932 2.27335-0.0668632 1.8516-0.37032 1.4247-0.668632 1.10067-1.05953 0.884652-1.543 0.678919-2.02133 0.576053-2.53052 0.576053-3.06542 0.576053-3.61062 0.678919-4.1198 0.884652-4.58785 1.10067-5.06618 1.4247-5.45707 1.8516-5.76053 2.27335-6.05884 2.79797-6.21314 3.41517-6.21314 4.22267-6.21314 4.86559-5.9354 5.34906-5.39021 5.84282-4.8553 6.0897-4.07351 6.0897-3.04485L6.0897-2.7774 1.56357-2.7774 1.56357-2.6951C1.56357-2.36593 1.63558-2.04704 1.78988-1.74873 1.95446-1.44527 2.17048-1.19839 2.44822-1.00809 2.72082-0.828075 3.03456-0.740639 3.3946-0.740639 3.79063-0.740639 4.12495-0.833218 4.40269-1.02867 4.69071-1.2344 4.90159-1.50699 5.04046-1.8516L6.00741-1.8516C5.85311-1.30126 5.55994-0.843506 5.12275-0.473186 4.68043-0.102867 4.11466 0.0822932 3.41517 0.0822932ZM5.12275-3.47689C5.09189-4.16095 4.92216-4.65471 4.60842-4.95817 4.30496-5.27191 3.90893-5.43135 3.41517-5.43135 2.86483-5.43135 2.42765-5.24619 2.09848-4.87587 1.77959-4.51584 1.615-4.05294 1.60472-3.47689Z" fill="#001D3D" transform="matrix(1 0 0 1.01017 328.008 298.601)"/><path d="M0.864079-6.04855 1.83102-6.04855 1.83102-4.93759 1.93389-4.93759C1.94418-5.01989 2.02133-5.15361 2.1602-5.34906 2.29392-5.55479 2.49966-5.7451 2.7774-5.92511 3.06542-6.11542 3.42031-6.21314 3.84721-6.21314 4.28439-6.21314 4.64957-6.11027 4.93759-5.90454 5.23591-5.69881 5.45707-5.4725 5.59594-5.22562 5.7451-4.98903 5.82225-4.84502 5.82225-4.79358L5.92511-4.79358C6.03312-5.05075 6.244-5.3542 6.56289-5.69881 6.87663-6.03827 7.36524-6.21314 8.02359-6.21314 8.51735-6.21314 8.92882-6.0897 9.25799-5.84282 9.58716-5.59594 9.82376-5.27191 9.97806-4.87587 10.1426-4.49012 10.2249-4.07351 10.2249-3.6209L10.2249 0 9.23742 0 9.23742-3.53861C9.23742-4.11466 9.08312-4.55184 8.7848-4.8553 8.48135-5.15361 8.11103-5.30791 7.67384-5.30791 7.2058-5.30791 6.81491-5.14847 6.50117-4.83473 6.18228-4.53127 6.02798-4.09923 6.02798-3.53861L6.02798 0 5.06103 0 5.06103-3.53861C5.06103-4.11466 4.90159-4.55184 4.58785-4.8553 4.28439-5.15361 3.91407-5.30791 3.47689-5.30791 3.02428-5.30791 2.63338-5.14847 2.30421-4.83473 1.98532-4.53127 1.83102-4.09923 1.83102-3.53861L1.83102 0 0.864079 0Z" fill="#001D3D" transform="matrix(1 0 0 1.01017 335.438 298.601)"/><path d="M3.086 0.0822932C2.53566 0.0822932 2.06762-0.0514333 1.68701-0.329173 1.31669-0.601769 1.02867-0.972089 0.822932-1.44013 0.627485-1.91846 0.534906-2.45851 0.534906-3.06542 0.534906-3.66719 0.637773-4.2021 0.843506-4.67014 1.04924-5.14847 1.34241-5.52393 1.72816-5.80167 2.10876-6.07427 2.57166-6.21314 3.10657-6.21314 3.64148-6.21314 4.07351-6.07941 4.40269-5.82225 4.73186-5.57537 4.98388-5.27191 5.1639-4.91702L5.22562-4.91702 5.22562-6.04855 6.23371-6.04855 6.23371 0 5.22562 0 5.22562-1.2344 5.1639-1.2344C4.96845-0.874365 4.701-0.565767 4.36154-0.3086 4.03237-0.0462899 3.60547 0.0822932 3.086 0.0822932ZM3.3946-0.761212C3.98094-0.761212 4.4284-0.977233 4.73186-1.41956 5.0456-1.87217 5.20505-2.41736 5.20505-3.06542 5.20505-3.70834 5.0456-4.24839 4.73186-4.69071 4.4284-5.14333 3.98094-5.36963 3.3946-5.36963 2.78768-5.36963 2.32993-5.14847 2.01618-4.71129 1.6973-4.26896 1.543-3.72891 1.543-3.086 1.543-2.42765 1.6973-1.87217 2.01618-1.41956 2.32993-0.977233 2.78768-0.761212 3.3946-0.761212Z" fill="#001D3D" transform="matrix(1 0 0 1.01017 347.175 298.601)"/><path d="M3.10657 0.0822932C2.57166 0.0822932 2.10876-0.0514333 1.72816-0.329173 1.34241-0.601769 1.04924-0.972089 0.843506-1.44013 0.64806-1.91846 0.555479-2.45851 0.555479-3.06542 0.555479-3.66719 0.64806-4.2021 0.843506-4.67014 1.04924-5.14847 1.34241-5.52393 1.72816-5.80167 2.10876-6.07427 2.57681-6.21314 3.12714-6.21314 3.66205-6.21314 4.09409-6.07941 4.42326-5.82225 4.75243-5.55994 4.99931-5.25648 5.1639-4.91702L5.26677-4.91702 5.26677-8.59964 6.25429-8.59964 6.25429 0 5.26677 0 5.26677-1.2344 5.1639-1.2344C4.98388-0.864079 4.72157-0.545192 4.38211-0.288026 4.05294-0.0411466 3.62605 0.0822932 3.10657 0.0822932ZM3.3946-0.761212C3.99636-0.761212 4.44898-0.977233 4.75243-1.41956 5.06618-1.87217 5.22562-2.41736 5.22562-3.06542 5.22562-3.70834 5.06618-4.24839 4.75243-4.69071 4.44898-5.1279 3.99636-5.34906 3.3946-5.34906 2.78768-5.34906 2.32993-5.1279 2.01618-4.69071 1.71273-4.24839 1.56357-3.70834 1.56357-3.06542 1.56357-2.40708 1.71787-1.85674 2.03676-1.41956 2.3505-0.977233 2.80311-0.761212 3.3946-0.761212Z" fill="#001D3D" transform="matrix(1 0 0 1.01017 358.407 298.601)"/><path d="M3.41517 0.0822932C2.79797 0.0822932 2.27335-0.0668632 1.8516-0.37032 1.4247-0.668632 1.10067-1.05953 0.884652-1.543 0.678919-2.02133 0.576053-2.53052 0.576053-3.06542 0.576053-3.61062 0.678919-4.1198 0.884652-4.58785 1.10067-5.06618 1.4247-5.45707 1.8516-5.76053 2.27335-6.05884 2.79797-6.21314 3.41517-6.21314 4.22267-6.21314 4.86559-5.9354 5.34906-5.39021 5.84282-4.8553 6.0897-4.07351 6.0897-3.04485L6.0897-2.7774 1.56357-2.7774 1.56357-2.6951C1.56357-2.36593 1.63558-2.04704 1.78988-1.74873 1.95446-1.44527 2.17048-1.19839 2.44822-1.00809 2.72082-0.828075 3.03456-0.740639 3.3946-0.740639 3.79063-0.740639 4.12495-0.833218 4.40269-1.02867 4.69071-1.2344 4.90159-1.50699 5.04046-1.8516L6.00741-1.8516C5.85311-1.30126 5.55994-0.843506 5.12275-0.473186 4.68043-0.102867 4.11466 0.0822932 3.41517 0.0822932ZM5.12275-3.47689C5.09189-4.16095 4.92216-4.65471 4.60842-4.95817 4.30496-5.27191 3.90893-5.43135 3.41517-5.43135 2.86483-5.43135 2.42765-5.24619 2.09848-4.87587 1.77959-4.51584 1.615-4.05294 1.60472-3.47689Z" fill="#001D3D" transform="matrix(1 0 0 1.01017 366.251 298.601)"/><path d="M4.09409 0.0822932C3.3123 0.0822932 2.6591-0.113153 2.13962-0.514333 1.615-0.925799 1.2344-1.44013 0.987519-2.05733 0.740639-2.68482 0.617199-3.35345 0.617199-4.05294 0.617199-4.75243 0.740639-5.41592 0.987519-6.04855 1.2344-6.67604 1.62529-7.19037 2.1602-7.59155 2.70539-8.00302 3.37917-8.20875 4.17638-8.20875 5.06618-8.20875 5.78624-7.96187 6.33658-7.46811 6.8972-6.98464 7.28809-6.38287 7.50926-5.65766L6.46002-5.65766C6.30572-6.16171 6.03827-6.56289 5.65766-6.85091 5.27191-7.14923 4.77815-7.30352 4.17638-7.30352 3.37917-7.30352 2.75682-7.00521 2.30421-6.41887 1.8516-5.84282 1.62529-5.0456 1.62529-4.03237 1.62529-3.01399 1.8516-2.21163 2.30421-1.62529 2.76711-1.04924 3.40488-0.761212 4.21753-0.761212 4.69586-0.761212 5.10732-0.853793 5.45193-1.04924 5.80682-1.25497 6.07941-1.53271 6.27486-1.89274 6.46516-2.24763 6.56289-2.64367 6.56289-3.086L6.58346-3.41517 4.32039-3.41517 4.32039-4.15581 7.50926-4.15581 7.50926 0 6.7069 0 6.7069-1.33727 6.62461-1.33727C6.58346-1.21383 6.48059-1.04924 6.31601-0.843506 6.15142-0.637773 5.88397-0.432039 5.51365-0.226306 5.14333-0.0205733 4.67014 0.0822932 4.09409 0.0822932Z" fill="#001D3D" transform="matrix(1 0 0 1.01017 377.059 298.601)"/><path d="M3.41517 0.0822932C2.79797 0.0822932 2.27335-0.0668632 1.8516-0.37032 1.4247-0.668632 1.10067-1.05953 0.884652-1.543 0.678919-2.02133 0.576053-2.53052 0.576053-3.06542 0.576053-3.61062 0.678919-4.1198 0.884652-4.58785 1.10067-5.06618 1.4247-5.45707 1.8516-5.76053 2.27335-6.05884 2.79797-6.21314 3.41517-6.21314 4.22267-6.21314 4.86559-5.9354 5.34906-5.39021 5.84282-4.8553 6.0897-4.07351 6.0897-3.04485L6.0897-2.7774 1.56357-2.7774 1.56357-2.6951C1.56357-2.36593 1.63558-2.04704 1.78988-1.74873 1.95446-1.44527 2.17048-1.19839 2.44822-1.00809 2.72082-0.828075 3.03456-0.740639 3.3946-0.740639 3.79063-0.740639 4.12495-0.833218 4.40269-1.02867 4.69071-1.2344 4.90159-1.50699 5.04046-1.8516L6.00741-1.8516C5.85311-1.30126 5.55994-0.843506 5.12275-0.473186 4.68043-0.102867 4.11466 0.0822932 3.41517 0.0822932ZM5.12275-3.47689C5.09189-4.16095 4.92216-4.65471 4.60842-4.95817 4.30496-5.27191 3.90893-5.43135 3.41517-5.43135 2.86483-5.43135 2.42765-5.24619 2.09848-4.87587 1.77959-4.51584 1.615-4.05294 1.60472-3.47689Z" fill="#001D3D" transform="matrix(1 0 0 1.01017 386.017 298.601)"/><path d="M2.92141 0.0822932C2.43794 0.0822932 2.01618-0.0102867 1.64586-0.205733 1.28583-0.411466 1.01324-0.663489 0.822932-0.966946 0.642916-1.26526 0.555479-1.58929 0.555479-1.93389L0.555479-1.99561 1.543-1.99561 1.543-1.93389C1.543-1.73844 1.58929-1.54814 1.68701-1.35784 1.79502-1.17782 1.95961-1.02867 2.18077-0.905226 2.39679-0.792072 2.6591-0.740639 2.96256-0.740639 3.33288-0.740639 3.63119-0.828075 3.86778-1.00809 4.11466-1.18297 4.2381-1.42985 4.2381-1.74873 4.2381-2.0059 4.14038-2.21163 3.95008-2.36593 3.77006-2.51509 3.53861-2.61281 3.25058-2.65396L2.44822-2.7774C1.95446-2.85969 1.53271-3.02942 1.19325-3.29173 0.864079-3.5489 0.699493-3.93464 0.699493-4.44383 0.699493-5.00446 0.89494-5.4365 1.29612-5.73995 1.70758-6.0537 2.22192-6.21314 2.83912-6.21314 3.30202-6.21314 3.7032-6.12056 4.03237-5.94569 4.37183-5.7811 4.63414-5.55479 4.81415-5.26677 4.98903-4.98903 5.08161-4.69071 5.08161-4.36154L5.08161-4.32039 4.09409-4.32039 4.09409-4.34097C4.09409-4.49012 4.05294-4.64957 3.97065-4.81415 3.88836-4.98903 3.74949-5.13304 3.55918-5.24619 3.36374-5.36963 3.11686-5.43135 2.81854-5.43135 2.44822-5.43135 2.14991-5.33877 1.93389-5.1639 1.71273-4.98388 1.60472-4.75243 1.60472-4.46441 1.60472-4.22782 1.69215-4.03237 1.87217-3.86778 2.04704-3.71348 2.26821-3.6209 2.53052-3.57976L3.3946-3.43574C3.89864-3.35345 4.32554-3.17858 4.67014-2.92141 5.0096-2.6591 5.18447-2.26821 5.18447-1.74873 5.18447-1.3887 5.08675-1.06981 4.89645-0.781786 4.701-0.504045 4.43355-0.293169 4.09409-0.144013 3.74949 0.00514333 3.35859 0.0822932 2.92141 0.0822932Z" fill="#001D3D" transform="matrix(1 0 0 1.01017 393.447 298.601)"/><path d="M2.48937-5.26677 2.48937-1.74873C2.48937-1.4607 2.49451-1.24468 2.50994-1.11096 2.53566-0.987519 2.61281-0.884652 2.73625-0.802359 2.85969-0.720066 3.04999-0.678919 3.3123-0.678919 3.50261-0.678919 3.7032-0.704636 3.90893-0.761212L3.90893-0.0617199C3.85235-0.03086 3.73406-0.0102867 3.55918 0 3.37917 0.0257166 3.19401 0.0411466 3.0037 0.0411466 2.56138 0.0411466 2.2322-0.0205733 2.01618-0.144013 1.79502-0.267453 1.65101-0.437182 1.58414-0.658346 1.52757-0.874365 1.50185-1.16239 1.50185-1.52242L1.50185-5.26677 0.37032-5.26677 0.37032-6.04855 1.50185-6.04855 1.50185-8.04416 2.48937-8.04416 2.48937-6.04855 3.90893-6.04855 3.90893-5.26677Z" fill="#001D3D" transform="matrix(1 0 0 1.01017 399.879 298.601)"/><path d="M0.946372-6.04855 1.93389-6.04855 1.93389 0 0.946372 0ZM1.41956-7.18008C1.23954-7.18008 1.09039-7.2418 0.966946-7.36524 0.843506-7.48868 0.781786-7.63784 0.781786-7.81786 0.781786-7.99273 0.843506-8.14703 0.966946-8.27047 1.09039-8.39391 1.23954-8.45563 1.41956-8.45563 1.60986-8.45563 1.7693-8.39391 1.89274-8.27047 2.01618-8.14703 2.0779-7.99273 2.0779-7.81786 2.0779-7.63784 2.01618-7.48868 1.89274-7.36524 1.7693-7.2418 1.60986-7.18008 1.41956-7.18008Z" fill="#001D3D" transform="matrix(1 0 0 1.01017 405.127 298.601)"/><path d="M3.41517 0.0822932C2.80826 0.0822932 2.29392-0.0617199 1.87217-0.349746 1.44527-0.64806 1.12124-1.03895 0.905226-1.52242 0.684062-2.00075 0.576053-2.51509 0.576053-3.06542 0.576053-3.61062 0.684062-4.12495 0.905226-4.60842 1.12124-5.08675 1.44527-5.4725 1.87217-5.76053 2.29392-6.05884 2.80826-6.21314 3.41517-6.21314 4.03237-6.21314 4.55184-6.05884 4.97874-5.76053 5.40049-5.4725 5.71938-5.08675 5.92511-4.60842 6.14113-4.12495 6.25429-3.61062 6.25429-3.06542 6.25429-2.51509 6.14113-2.00075 5.92511-1.52242 5.70395-1.03895 5.37992-0.64806 4.95817-0.349746 4.53127-0.0617199 4.01694 0.0822932 3.41517 0.0822932ZM3.41517-0.761212C3.79577-0.761212 4.12495-0.864079 4.40269-1.06981 4.67528-1.28583 4.88616-1.56871 5.04046-1.91332 5.18962-2.25278 5.26677-2.64367 5.26677-3.086 5.26677-3.74434 5.10218-4.28439 4.77301-4.71129 4.44383-5.14847 3.99122-5.36963 3.41517-5.36963 3.02942-5.36963 2.70025-5.26677 2.42765-5.06103 2.14991-4.8553 1.93903-4.57242 1.78988-4.21753 1.63558-3.87293 1.56357-3.49746 1.56357-3.086 1.56357-2.42765 1.72816-1.87217 2.05733-1.41956 2.3865-0.977233 2.83912-0.761212 3.41517-0.761212ZM3.06542-6.87149 4.17638-8.92882 5.24619-8.92882 3.84721-6.87149Z" fill="#001D3D" transform="matrix(1 0 0 1.01017 408.733 298.601)"/><path d="M0.864079-6.04855 1.8516-6.04855 1.8516-4.95817 1.93389-4.95817C2.08305-5.31306 2.32993-5.60623 2.67453-5.84282 3.02942-6.0897 3.45632-6.21314 3.95008-6.21314 4.45412-6.21314 4.88102-6.0897 5.22562-5.84282 5.58051-5.60623 5.84282-5.29248 6.00741-4.89645 6.17199-4.49527 6.25429-4.07351 6.25429-3.6209L6.25429 0 5.26677 0 5.26677-3.49746C5.26677-4.0838 5.10732-4.53641 4.79358-4.8553 4.4747-5.16904 4.07351-5.32849 3.57976-5.32849 3.05514-5.32849 2.63853-5.15361 2.32478-4.81415 2.0059-4.46955 1.8516-4.03237 1.8516-3.49746L1.8516 0 0.864079 0Z" fill="#001D3D" transform="matrix(1 0 0 1.01017 416.302 298.601)"/><path d="M3.10657 0.0822932C2.57166 0.0822932 2.10876-0.0514333 1.72816-0.329173 1.34241-0.601769 1.04924-0.972089 0.843506-1.44013 0.64806-1.91846 0.555479-2.45851 0.555479-3.06542 0.555479-3.66719 0.64806-4.2021 0.843506-4.67014 1.04924-5.14847 1.34241-5.52393 1.72816-5.80167 2.10876-6.07427 2.57681-6.21314 3.12714-6.21314 3.66205-6.21314 4.09409-6.07941 4.42326-5.82225 4.75243-5.55994 4.99931-5.25648 5.1639-4.91702L5.26677-4.91702 5.26677-8.59964 6.25429-8.59964 6.25429 0 5.26677 0 5.26677-1.2344 5.1639-1.2344C4.98388-0.864079 4.72157-0.545192 4.38211-0.288026 4.05294-0.0411466 3.62605 0.0822932 3.10657 0.0822932ZM3.3946-0.761212C3.99636-0.761212 4.44898-0.977233 4.75243-1.41956 5.06618-1.87217 5.22562-2.41736 5.22562-3.06542 5.22562-3.70834 5.06618-4.24839 4.75243-4.69071 4.44898-5.1279 3.99636-5.34906 3.3946-5.34906 2.78768-5.34906 2.32993-5.1279 2.01618-4.69071 1.71273-4.24839 1.56357-3.70834 1.56357-3.06542 1.56357-2.40708 1.71787-1.85674 2.03676-1.41956 2.3505-0.977233 2.80311-0.761212 3.3946-0.761212Z" fill="#001D3D" transform="matrix(1 0 0 1.01017 427.442 298.601)"/><path d="M3.41517 0.0822932C2.79797 0.0822932 2.27335-0.0668632 1.8516-0.37032 1.4247-0.668632 1.10067-1.05953 0.884652-1.543 0.678919-2.02133 0.576053-2.53052 0.576053-3.06542 0.576053-3.61062 0.678919-4.1198 0.884652-4.58785 1.10067-5.06618 1.4247-5.45707 1.8516-5.76053 2.27335-6.05884 2.79797-6.21314 3.41517-6.21314 4.22267-6.21314 4.86559-5.9354 5.34906-5.39021 5.84282-4.8553 6.0897-4.07351 6.0897-3.04485L6.0897-2.7774 1.56357-2.7774 1.56357-2.6951C1.56357-2.36593 1.63558-2.04704 1.78988-1.74873 1.95446-1.44527 2.17048-1.19839 2.44822-1.00809 2.72082-0.828075 3.03456-0.740639 3.3946-0.740639 3.79063-0.740639 4.12495-0.833218 4.40269-1.02867 4.69071-1.2344 4.90159-1.50699 5.04046-1.8516L6.00741-1.8516C5.85311-1.30126 5.55994-0.843506 5.12275-0.473186 4.68043-0.102867 4.11466 0.0822932 3.41517 0.0822932ZM5.12275-3.47689C5.09189-4.16095 4.92216-4.65471 4.60842-4.95817 4.30496-5.27191 3.90893-5.43135 3.41517-5.43135 2.86483-5.43135 2.42765-5.24619 2.09848-4.87587 1.77959-4.51584 1.615-4.05294 1.60472-3.47689Z" fill="#001D3D" transform="matrix(1 0 0 1.01017 435.286 298.601)"/><path d="M0.864079-8.04416 3.80606-8.04416C4.51584-8.04416 5.14333-7.87958 5.67823-7.5504 6.22343-7.22123 6.64518-6.75319 6.93321-6.15142 7.23152-5.55994 7.38582-4.8553 7.38582-4.03237 7.38582-3.20944 7.23152-2.48937 6.93321-1.87217 6.64518-1.26526 6.22343-0.802359 5.67823-0.473186 5.14333-0.1543 4.5107 0 3.78549 0L0.864079 0ZM3.64148-0.925799C4.46441-0.925799 5.11247-1.18297 5.59594-1.70758 6.0897-2.24249 6.33658-3.01399 6.33658-4.03237 6.33658-5.0456 6.0897-5.81196 5.59594-6.33658 5.11247-6.87149 4.46441-7.13894 3.64148-7.13894L1.83102-7.13894 1.83102-0.925799Z" fill="#001D3D" transform="matrix(1 0 0 1.01017 446.093 298.601)"/><path d="M3.41517 0.0822932C2.80826 0.0822932 2.29392-0.0617199 1.87217-0.349746 1.44527-0.64806 1.12124-1.03895 0.905226-1.52242 0.684062-2.00075 0.576053-2.51509 0.576053-3.06542 0.576053-3.61062 0.684062-4.12495 0.905226-4.60842 1.12124-5.08675 1.44527-5.4725 1.87217-5.76053 2.29392-6.05884 2.80826-6.21314 3.41517-6.21314 4.03237-6.21314 4.55184-6.05884 4.97874-5.76053 5.40049-5.4725 5.71938-5.08675 5.92511-4.60842 6.14113-4.12495 6.25429-3.61062 6.25429-3.06542 6.25429-2.51509 6.14113-2.00075 5.92511-1.52242 5.70395-1.03895 5.37992-0.64806 4.95817-0.349746 4.53127-0.0617199 4.01694 0.0822932 3.41517 0.0822932ZM3.41517-0.761212C3.79577-0.761212 4.12495-0.864079 4.40269-1.06981 4.67528-1.28583 4.88616-1.56871 5.04046-1.91332 5.18962-2.25278 5.26677-2.64367 5.26677-3.086 5.26677-3.74434 5.10218-4.28439 4.77301-4.71129 4.44383-5.14847 3.99122-5.36963 3.41517-5.36963 3.02942-5.36963 2.70025-5.26677 2.42765-5.06103 2.14991-4.8553 1.93903-4.57242 1.78988-4.21753 1.63558-3.87293 1.56357-3.49746 1.56357-3.086 1.56357-2.42765 1.72816-1.87217 2.05733-1.41956 2.3865-0.977233 2.83912-0.761212 3.41517-0.761212Z" fill="#001D3D" transform="matrix(1 0 0 1.01017 454.718 298.601)"/><path d="M3.43574 0.0822932C2.81854 0.0822932 2.28878-0.0668632 1.8516-0.37032 1.4247-0.668632 1.10067-1.05438 0.884652-1.52242 0.678919-2.00075 0.576053-2.51509 0.576053-3.06542 0.576053-3.61062 0.678919-4.1198 0.884652-4.58785 1.10067-5.06618 1.4247-5.45707 1.8516-5.76053 2.28878-6.05884 2.81854-6.21314 3.43574-6.21314 4.21753-6.21314 4.83473-5.98683 5.28734-5.53422 5.73995-5.08161 6.00741-4.52613 6.0897-3.86778L5.12275-3.86778C5.05075-4.30496 4.87587-4.65985 4.58785-4.93759 4.31011-5.22562 3.93464-5.36963 3.45632-5.36963 2.83912-5.36963 2.37107-5.14847 2.05733-4.71129 1.73844-4.26896 1.58414-3.72377 1.58414-3.06542 1.58414-2.40708 1.73844-1.85674 2.05733-1.41956 2.37107-0.977233 2.83912-0.761212 3.45632-0.761212 3.93464-0.761212 4.31011-0.89494 4.58785-1.17268 4.87587-1.44527 5.05075-1.81045 5.12275-2.26306L6.0897-2.26306C6.00741-1.60472 5.73995-1.04924 5.28734-0.596626 4.83473-0.144013 4.21753 0.0822932 3.43574 0.0822932Z" fill="#001D3D" transform="matrix(1 0 0 1.01017 462.286 298.601)"/><path d="M6.13085 0 5.12275 0 5.12275-1.15211 5.06103-1.15211C4.89645-0.792072 4.64957-0.493759 4.32039-0.24688 3.99122-0.0102867 3.5849 0.102867 3.10657 0.102867 2.59738 0.102867 2.17048-0.0205733 1.83102-0.267453 1.50185-0.514333 1.25497-0.828075 1.09039-1.21383 0.936086-1.60986 0.864079-2.03676 0.864079-2.48937L0.864079-6.04855 1.8516-6.04855 1.8516-2.61281C1.8516-2.02133 1.99561-1.56871 2.28364-1.25497 2.58195-0.936086 2.98313-0.781786 3.47689-0.781786 3.97065-0.781786 4.36668-0.951515 4.67014-1.29612 4.96845-1.63558 5.12275-2.0779 5.12275-2.61281L5.12275-6.04855 6.13085-6.04855Z" fill="#001D3D" transform="matrix(1 0 0 1.01017 469.636 298.601)"/><path d="M0.864079-6.04855 1.83102-6.04855 1.83102-4.93759 1.93389-4.93759C1.94418-5.01989 2.02133-5.15361 2.1602-5.34906 2.29392-5.55479 2.49966-5.7451 2.7774-5.92511 3.06542-6.11542 3.42031-6.21314 3.84721-6.21314 4.28439-6.21314 4.64957-6.11027 4.93759-5.90454 5.23591-5.69881 5.45707-5.4725 5.59594-5.22562 5.7451-4.98903 5.82225-4.84502 5.82225-4.79358L5.92511-4.79358C6.03312-5.05075 6.244-5.3542 6.56289-5.69881 6.87663-6.03827 7.36524-6.21314 8.02359-6.21314 8.51735-6.21314 8.92882-6.0897 9.25799-5.84282 9.58716-5.59594 9.82376-5.27191 9.97806-4.87587 10.1426-4.49012 10.2249-4.07351 10.2249-3.6209L10.2249 0 9.23742 0 9.23742-3.53861C9.23742-4.11466 9.08312-4.55184 8.7848-4.8553 8.48135-5.15361 8.11103-5.30791 7.67384-5.30791 7.2058-5.30791 6.81491-5.14847 6.50117-4.83473 6.18228-4.53127 6.02798-4.09923 6.02798-3.53861L6.02798 0 5.06103 0 5.06103-3.53861C5.06103-4.11466 4.90159-4.55184 4.58785-4.8553 4.28439-5.15361 3.91407-5.30791 3.47689-5.30791 3.02428-5.30791 2.63338-5.14847 2.30421-4.83473 1.98532-4.53127 1.83102-4.09923 1.83102-3.53861L1.83102 0 0.864079 0Z" fill="#001D3D" transform="matrix(1 0 0 1.01017 477.285 298.601)"/><path d="M3.41517 0.0822932C2.79797 0.0822932 2.27335-0.0668632 1.8516-0.37032 1.4247-0.668632 1.10067-1.05953 0.884652-1.543 0.678919-2.02133 0.576053-2.53052 0.576053-3.06542 0.576053-3.61062 0.678919-4.1198 0.884652-4.58785 1.10067-5.06618 1.4247-5.45707 1.8516-5.76053 2.27335-6.05884 2.79797-6.21314 3.41517-6.21314 4.22267-6.21314 4.86559-5.9354 5.34906-5.39021 5.84282-4.8553 6.0897-4.07351 6.0897-3.04485L6.0897-2.7774 1.56357-2.7774 1.56357-2.6951C1.56357-2.36593 1.63558-2.04704 1.78988-1.74873 1.95446-1.44527 2.17048-1.19839 2.44822-1.00809 2.72082-0.828075 3.03456-0.740639 3.3946-0.740639 3.79063-0.740639 4.12495-0.833218 4.40269-1.02867 4.69071-1.2344 4.90159-1.50699 5.04046-1.8516L6.00741-1.8516C5.85311-1.30126 5.55994-0.843506 5.12275-0.473186 4.68043-0.102867 4.11466 0.0822932 3.41517 0.0822932ZM5.12275-3.47689C5.09189-4.16095 4.92216-4.65471 4.60842-4.95817 4.30496-5.27191 3.90893-5.43135 3.41517-5.43135 2.86483-5.43135 2.42765-5.24619 2.09848-4.87587 1.77959-4.51584 1.615-4.05294 1.60472-3.47689Z" fill="#001D3D" transform="matrix(1 0 0 1.01017 489.022 298.601)"/><path d="M0.864079-6.04855 1.8516-6.04855 1.8516-4.95817 1.93389-4.95817C2.08305-5.31306 2.32993-5.60623 2.67453-5.84282 3.02942-6.0897 3.45632-6.21314 3.95008-6.21314 4.45412-6.21314 4.88102-6.0897 5.22562-5.84282 5.58051-5.60623 5.84282-5.29248 6.00741-4.89645 6.17199-4.49527 6.25429-4.07351 6.25429-3.6209L6.25429 0 5.26677 0 5.26677-3.49746C5.26677-4.0838 5.10732-4.53641 4.79358-4.8553 4.4747-5.16904 4.07351-5.32849 3.57976-5.32849 3.05514-5.32849 2.63853-5.15361 2.32478-4.81415 2.0059-4.46955 1.8516-4.03237 1.8516-3.49746L1.8516 0 0.864079 0Z" fill="#001D3D" transform="matrix(1 0 0 1.01017 496.453 298.601)"/><path d="M2.48937-5.26677 2.48937-1.74873C2.48937-1.4607 2.49451-1.24468 2.50994-1.11096 2.53566-0.987519 2.61281-0.884652 2.73625-0.802359 2.85969-0.720066 3.04999-0.678919 3.3123-0.678919 3.50261-0.678919 3.7032-0.704636 3.90893-0.761212L3.90893-0.0617199C3.85235-0.03086 3.73406-0.0102867 3.55918 0 3.37917 0.0257166 3.19401 0.0411466 3.0037 0.0411466 2.56138 0.0411466 2.2322-0.0205733 2.01618-0.144013 1.79502-0.267453 1.65101-0.437182 1.58414-0.658346 1.52757-0.874365 1.50185-1.16239 1.50185-1.52242L1.50185-5.26677 0.37032-5.26677 0.37032-6.04855 1.50185-6.04855 1.50185-8.04416 2.48937-8.04416 2.48937-6.04855 3.90893-6.04855 3.90893-5.26677Z" fill="#001D3D" transform="matrix(1 0 0 1.01017 504.217 298.601)"/><path d="M3.41517 0.0822932C2.80826 0.0822932 2.29392-0.0617199 1.87217-0.349746 1.44527-0.64806 1.12124-1.03895 0.905226-1.52242 0.684062-2.00075 0.576053-2.51509 0.576053-3.06542 0.576053-3.61062 0.684062-4.12495 0.905226-4.60842 1.12124-5.08675 1.44527-5.4725 1.87217-5.76053 2.29392-6.05884 2.80826-6.21314 3.41517-6.21314 4.03237-6.21314 4.55184-6.05884 4.97874-5.76053 5.40049-5.4725 5.71938-5.08675 5.92511-4.60842 6.14113-4.12495 6.25429-3.61062 6.25429-3.06542 6.25429-2.51509 6.14113-2.00075 5.92511-1.52242 5.70395-1.03895 5.37992-0.64806 4.95817-0.349746 4.53127-0.0617199 4.01694 0.0822932 3.41517 0.0822932ZM3.41517-0.761212C3.79577-0.761212 4.12495-0.864079 4.40269-1.06981 4.67528-1.28583 4.88616-1.56871 5.04046-1.91332 5.18962-2.25278 5.26677-2.64367 5.26677-3.086 5.26677-3.74434 5.10218-4.28439 4.77301-4.71129 4.44383-5.14847 3.99122-5.36963 3.41517-5.36963 3.02942-5.36963 2.70025-5.26677 2.42765-5.06103 2.14991-4.8553 1.93903-4.57242 1.78988-4.21753 1.63558-3.87293 1.56357-3.49746 1.56357-3.086 1.56357-2.42765 1.72816-1.87217 2.05733-1.41956 2.3865-0.977233 2.83912-0.761212 3.41517-0.761212Z" fill="#001D3D" transform="matrix(1 0 0 1.01017 509.465 298.601)"/><path d="M2.92141 0.0822932C2.43794 0.0822932 2.01618-0.0102867 1.64586-0.205733 1.28583-0.411466 1.01324-0.663489 0.822932-0.966946 0.642916-1.26526 0.555479-1.58929 0.555479-1.93389L0.555479-1.99561 1.543-1.99561 1.543-1.93389C1.543-1.73844 1.58929-1.54814 1.68701-1.35784 1.79502-1.17782 1.95961-1.02867 2.18077-0.905226 2.39679-0.792072 2.6591-0.740639 2.96256-0.740639 3.33288-0.740639 3.63119-0.828075 3.86778-1.00809 4.11466-1.18297 4.2381-1.42985 4.2381-1.74873 4.2381-2.0059 4.14038-2.21163 3.95008-2.36593 3.77006-2.51509 3.53861-2.61281 3.25058-2.65396L2.44822-2.7774C1.95446-2.85969 1.53271-3.02942 1.19325-3.29173 0.864079-3.5489 0.699493-3.93464 0.699493-4.44383 0.699493-5.00446 0.89494-5.4365 1.29612-5.73995 1.70758-6.0537 2.22192-6.21314 2.83912-6.21314 3.30202-6.21314 3.7032-6.12056 4.03237-5.94569 4.37183-5.7811 4.63414-5.55479 4.81415-5.26677 4.98903-4.98903 5.08161-4.69071 5.08161-4.36154L5.08161-4.32039 4.09409-4.32039 4.09409-4.34097C4.09409-4.49012 4.05294-4.64957 3.97065-4.81415 3.88836-4.98903 3.74949-5.13304 3.55918-5.24619 3.36374-5.36963 3.11686-5.43135 2.81854-5.43135 2.44822-5.43135 2.14991-5.33877 1.93389-5.1639 1.71273-4.98388 1.60472-4.75243 1.60472-4.46441 1.60472-4.22782 1.69215-4.03237 1.87217-3.86778 2.04704-3.71348 2.26821-3.6209 2.53052-3.57976L3.3946-3.43574C3.89864-3.35345 4.32554-3.17858 4.67014-2.92141 5.0096-2.6591 5.18447-2.26821 5.18447-1.74873 5.18447-1.3887 5.08675-1.06981 4.89645-0.781786 4.701-0.504045 4.43355-0.293169 4.09409-0.144013 3.74949 0.00514333 3.35859 0.0822932 2.92141 0.0822932Z" fill="#001D3D" transform="matrix(1 0 0 1.01017 517.034 298.601)"/><path d="M1.8516-7.13894 1.8516-4.50555 5.32849-4.50555 5.32849-3.7032 1.8516-3.7032 1.8516-0.905226 5.80167-0.905226 5.80167 0 0.864079 0 0.864079-8.04416 5.80167-8.04416 5.80167-7.13894Z" fill="#001D3D" transform="matrix(1 0 0 1.01017 526.841 298.601)"/><path d="M2.40708 0.0411466C1.95446 0.0411466 1.615-0.0257166 1.39899-0.164586 1.17782-0.313743 1.03895-0.504045 0.987519-0.740639 0.930942-0.972089 0.905226-1.27555 0.905226-1.64586L0.905226-8.59964 1.89274-8.59964 1.89274-1.81045C1.89274-1.50699 1.90303-1.28583 1.93389-1.15211 1.95961-1.01324 2.02647-0.89494 2.13962-0.802359 2.26306-0.720066 2.45337-0.678919 2.71568-0.678919 2.88026-0.678919 3.02428-0.689206 3.14772-0.720066L3.14772-0.0205733C2.94198 0.0205733 2.6951 0.0411466 2.40708 0.0411466Z" fill="#001D3D" transform="matrix(1 0 0 1.01017 534.111 298.601)"/><path d="M3.41517 0.0822932C2.79797 0.0822932 2.27335-0.0668632 1.8516-0.37032 1.4247-0.668632 1.10067-1.05953 0.884652-1.543 0.678919-2.02133 0.576053-2.53052 0.576053-3.06542 0.576053-3.61062 0.678919-4.1198 0.884652-4.58785 1.10067-5.06618 1.4247-5.45707 1.8516-5.76053 2.27335-6.05884 2.79797-6.21314 3.41517-6.21314 4.22267-6.21314 4.86559-5.9354 5.34906-5.39021 5.84282-4.8553 6.0897-4.07351 6.0897-3.04485L6.0897-2.7774 1.56357-2.7774 1.56357-2.6951C1.56357-2.36593 1.63558-2.04704 1.78988-1.74873 1.95446-1.44527 2.17048-1.19839 2.44822-1.00809 2.72082-0.828075 3.03456-0.740639 3.3946-0.740639 3.79063-0.740639 4.12495-0.833218 4.40269-1.02867 4.69071-1.2344 4.90159-1.50699 5.04046-1.8516L6.00741-1.8516C5.85311-1.30126 5.55994-0.843506 5.12275-0.473186 4.68043-0.102867 4.11466 0.0822932 3.41517 0.0822932ZM5.12275-3.47689C5.09189-4.16095 4.92216-4.65471 4.60842-4.95817 4.30496-5.27191 3.90893-5.43135 3.41517-5.43135 2.86483-5.43135 2.42765-5.24619 2.09848-4.87587 1.77959-4.51584 1.615-4.05294 1.60472-3.47689Z" fill="#001D3D" transform="matrix(1 0 0 1.01017 538.452 298.601)"/><path d="M3.43574 0.0822932C2.81854 0.0822932 2.28878-0.0668632 1.8516-0.37032 1.4247-0.668632 1.10067-1.05438 0.884652-1.52242 0.678919-2.00075 0.576053-2.51509 0.576053-3.06542 0.576053-3.61062 0.678919-4.1198 0.884652-4.58785 1.10067-5.06618 1.4247-5.45707 1.8516-5.76053 2.28878-6.05884 2.81854-6.21314 3.43574-6.21314 4.21753-6.21314 4.83473-5.98683 5.28734-5.53422 5.73995-5.08161 6.00741-4.52613 6.0897-3.86778L5.12275-3.86778C5.05075-4.30496 4.87587-4.65985 4.58785-4.93759 4.31011-5.22562 3.93464-5.36963 3.45632-5.36963 2.83912-5.36963 2.37107-5.14847 2.05733-4.71129 1.73844-4.26896 1.58414-3.72377 1.58414-3.06542 1.58414-2.40708 1.73844-1.85674 2.05733-1.41956 2.37107-0.977233 2.83912-0.761212 3.45632-0.761212 3.93464-0.761212 4.31011-0.89494 4.58785-1.17268 4.87587-1.44527 5.05075-1.81045 5.12275-2.26306L6.0897-2.26306C6.00741-1.60472 5.73995-1.04924 5.28734-0.596626 4.83473-0.144013 4.21753 0.0822932 3.43574 0.0822932Z" fill="#001D3D" transform="matrix(1 0 0 1.01017 545.883 298.601)"/><path d="M2.48937-5.26677 2.48937-1.74873C2.48937-1.4607 2.49451-1.24468 2.50994-1.11096 2.53566-0.987519 2.61281-0.884652 2.73625-0.802359 2.85969-0.720066 3.04999-0.678919 3.3123-0.678919 3.50261-0.678919 3.7032-0.704636 3.90893-0.761212L3.90893-0.0617199C3.85235-0.03086 3.73406-0.0102867 3.55918 0 3.37917 0.0257166 3.19401 0.0411466 3.0037 0.0411466 2.56138 0.0411466 2.2322-0.0205733 2.01618-0.144013 1.79502-0.267453 1.65101-0.437182 1.58414-0.658346 1.52757-0.874365 1.50185-1.16239 1.50185-1.52242L1.50185-5.26677 0.37032-5.26677 0.37032-6.04855 1.50185-6.04855 1.50185-8.04416 2.48937-8.04416 2.48937-6.04855 3.90893-6.04855 3.90893-5.26677Z" fill="#001D3D" transform="matrix(1 0 0 1.01017 553.233 298.601)"/><path d="M0.822932-6.04855 1.81045-6.04855 1.81045-5.08161 1.87217-5.08161C1.96475-5.3542 2.14477-5.58051 2.40708-5.76053 2.66424-5.95083 2.98827-6.04855 3.37402-6.04855 3.49746-6.04855 3.59004-6.03827 3.66205-6.02798 3.74434-6.01255 3.82664-5.99198 3.90893-5.96626L3.88836-4.99931C3.76492-5.04046 3.65176-5.06618 3.55918-5.08161 3.47689-5.09189 3.36374-5.10218 3.23001-5.10218 2.28364-5.10218 1.81045-4.53641 1.81045-3.41517L1.81045 0 0.822932 0Z" fill="#001D3D" transform="matrix(1 0 0 1.01017 558.482 298.601)"/><path d="M3.41517 0.0822932C2.80826 0.0822932 2.29392-0.0617199 1.87217-0.349746 1.44527-0.64806 1.12124-1.03895 0.905226-1.52242 0.684062-2.00075 0.576053-2.51509 0.576053-3.06542 0.576053-3.61062 0.684062-4.12495 0.905226-4.60842 1.12124-5.08675 1.44527-5.4725 1.87217-5.76053 2.29392-6.05884 2.80826-6.21314 3.41517-6.21314 4.03237-6.21314 4.55184-6.05884 4.97874-5.76053 5.40049-5.4725 5.71938-5.08675 5.92511-4.60842 6.14113-4.12495 6.25429-3.61062 6.25429-3.06542 6.25429-2.51509 6.14113-2.00075 5.92511-1.52242 5.70395-1.03895 5.37992-0.64806 4.95817-0.349746 4.53127-0.0617199 4.01694 0.0822932 3.41517 0.0822932ZM3.41517-0.761212C3.79577-0.761212 4.12495-0.864079 4.40269-1.06981 4.67528-1.28583 4.88616-1.56871 5.04046-1.91332 5.18962-2.25278 5.26677-2.64367 5.26677-3.086 5.26677-3.74434 5.10218-4.28439 4.77301-4.71129 4.44383-5.14847 3.99122-5.36963 3.41517-5.36963 3.02942-5.36963 2.70025-5.26677 2.42765-5.06103 2.14991-4.8553 1.93903-4.57242 1.78988-4.21753 1.63558-3.87293 1.56357-3.49746 1.56357-3.086 1.56357-2.42765 1.72816-1.87217 2.05733-1.41956 2.3865-0.977233 2.83912-0.761212 3.41517-0.761212ZM3.06542-6.87149 4.17638-8.92882 5.24619-8.92882 3.84721-6.87149Z" fill="#001D3D" transform="matrix(1 0 0 1.01017 563.271 298.601)"/><path d="M0.864079-6.04855 1.8516-6.04855 1.8516-4.95817 1.93389-4.95817C2.08305-5.31306 2.32993-5.60623 2.67453-5.84282 3.02942-6.0897 3.45632-6.21314 3.95008-6.21314 4.45412-6.21314 4.88102-6.0897 5.22562-5.84282 5.58051-5.60623 5.84282-5.29248 6.00741-4.89645 6.17199-4.49527 6.25429-4.07351 6.25429-3.6209L6.25429 0 5.26677 0 5.26677-3.49746C5.26677-4.0838 5.10732-4.53641 4.79358-4.8553 4.4747-5.16904 4.07351-5.32849 3.57976-5.32849 3.05514-5.32849 2.63853-5.15361 2.32478-4.81415 2.0059-4.46955 1.8516-4.03237 1.8516-3.49746L1.8516 0 0.864079 0Z" fill="#001D3D" transform="matrix(1 0 0 1.01017 570.839 298.601)"/><path d="M0.946372-6.04855 1.93389-6.04855 1.93389 0 0.946372 0ZM1.41956-7.18008C1.23954-7.18008 1.09039-7.2418 0.966946-7.36524 0.843506-7.48868 0.781786-7.63784 0.781786-7.81786 0.781786-7.99273 0.843506-8.14703 0.966946-8.27047 1.09039-8.39391 1.23954-8.45563 1.41956-8.45563 1.60986-8.45563 1.7693-8.39391 1.89274-8.27047 2.01618-8.14703 2.0779-7.99273 2.0779-7.81786 2.0779-7.63784 2.01618-7.48868 1.89274-7.36524 1.7693-7.2418 1.60986-7.18008 1.41956-7.18008Z" fill="#001D3D" transform="matrix(1 0 0 1.01017 578.603 298.601)"/><path d="M3.43574 0.0822932C2.81854 0.0822932 2.28878-0.0668632 1.8516-0.37032 1.4247-0.668632 1.10067-1.05438 0.884652-1.52242 0.678919-2.00075 0.576053-2.51509 0.576053-3.06542 0.576053-3.61062 0.678919-4.1198 0.884652-4.58785 1.10067-5.06618 1.4247-5.45707 1.8516-5.76053 2.28878-6.05884 2.81854-6.21314 3.43574-6.21314 4.21753-6.21314 4.83473-5.98683 5.28734-5.53422 5.73995-5.08161 6.00741-4.52613 6.0897-3.86778L5.12275-3.86778C5.05075-4.30496 4.87587-4.65985 4.58785-4.93759 4.31011-5.22562 3.93464-5.36963 3.45632-5.36963 2.83912-5.36963 2.37107-5.14847 2.05733-4.71129 1.73844-4.26896 1.58414-3.72377 1.58414-3.06542 1.58414-2.40708 1.73844-1.85674 2.05733-1.41956 2.37107-0.977233 2.83912-0.761212 3.45632-0.761212 3.93464-0.761212 4.31011-0.89494 4.58785-1.17268 4.87587-1.44527 5.05075-1.81045 5.12275-2.26306L6.0897-2.26306C6.00741-1.60472 5.73995-1.04924 5.28734-0.596626 4.83473-0.144013 4.21753 0.0822932 3.43574 0.0822932Z" fill="#001D3D" transform="matrix(1 0 0 1.01017 582.209 298.601)"/><path d="M3.41517 0.0822932C2.80826 0.0822932 2.29392-0.0617199 1.87217-0.349746 1.44527-0.64806 1.12124-1.03895 0.905226-1.52242 0.684062-2.00075 0.576053-2.51509 0.576053-3.06542 0.576053-3.61062 0.684062-4.12495 0.905226-4.60842 1.12124-5.08675 1.44527-5.4725 1.87217-5.76053 2.29392-6.05884 2.80826-6.21314 3.41517-6.21314 4.03237-6.21314 4.55184-6.05884 4.97874-5.76053 5.40049-5.4725 5.71938-5.08675 5.92511-4.60842 6.14113-4.12495 6.25429-3.61062 6.25429-3.06542 6.25429-2.51509 6.14113-2.00075 5.92511-1.52242 5.70395-1.03895 5.37992-0.64806 4.95817-0.349746 4.53127-0.0617199 4.01694 0.0822932 3.41517 0.0822932ZM3.41517-0.761212C3.79577-0.761212 4.12495-0.864079 4.40269-1.06981 4.67528-1.28583 4.88616-1.56871 5.04046-1.91332 5.18962-2.25278 5.26677-2.64367 5.26677-3.086 5.26677-3.74434 5.10218-4.28439 4.77301-4.71129 4.44383-5.14847 3.99122-5.36963 3.41517-5.36963 3.02942-5.36963 2.70025-5.26677 2.42765-5.06103 2.14991-4.8553 1.93903-4.57242 1.78988-4.21753 1.63558-3.87293 1.56357-3.49746 1.56357-3.086 1.56357-2.42765 1.72816-1.87217 2.05733-1.41956 2.3865-0.977233 2.83912-0.761212 3.41517-0.761212Z" fill="#001D3D" transform="matrix(1 0 0 1.01017 589.559 298.601)"/><path d="M2.92141 0.0822932C2.43794 0.0822932 2.01618-0.0102867 1.64586-0.205733 1.28583-0.411466 1.01324-0.663489 0.822932-0.966946 0.642916-1.26526 0.555479-1.58929 0.555479-1.93389L0.555479-1.99561 1.543-1.99561 1.543-1.93389C1.543-1.73844 1.58929-1.54814 1.68701-1.35784 1.79502-1.17782 1.95961-1.02867 2.18077-0.905226 2.39679-0.792072 2.6591-0.740639 2.96256-0.740639 3.33288-0.740639 3.63119-0.828075 3.86778-1.00809 4.11466-1.18297 4.2381-1.42985 4.2381-1.74873 4.2381-2.0059 4.14038-2.21163 3.95008-2.36593 3.77006-2.51509 3.53861-2.61281 3.25058-2.65396L2.44822-2.7774C1.95446-2.85969 1.53271-3.02942 1.19325-3.29173 0.864079-3.5489 0.699493-3.93464 0.699493-4.44383 0.699493-5.00446 0.89494-5.4365 1.29612-5.73995 1.70758-6.0537 2.22192-6.21314 2.83912-6.21314 3.30202-6.21314 3.7032-6.12056 4.03237-5.94569 4.37183-5.7811 4.63414-5.55479 4.81415-5.26677 4.98903-4.98903 5.08161-4.69071 5.08161-4.36154L5.08161-4.32039 4.09409-4.32039 4.09409-4.34097C4.09409-4.49012 4.05294-4.64957 3.97065-4.81415 3.88836-4.98903 3.74949-5.13304 3.55918-5.24619 3.36374-5.36963 3.11686-5.43135 2.81854-5.43135 2.44822-5.43135 2.14991-5.33877 1.93389-5.1639 1.71273-4.98388 1.60472-4.75243 1.60472-4.46441 1.60472-4.22782 1.69215-4.03237 1.87217-3.86778 2.04704-3.71348 2.26821-3.6209 2.53052-3.57976L3.3946-3.43574C3.89864-3.35345 4.32554-3.17858 4.67014-2.92141 5.0096-2.6591 5.18447-2.26821 5.18447-1.74873 5.18447-1.3887 5.08675-1.06981 4.89645-0.781786 4.701-0.504045 4.43355-0.293169 4.09409-0.144013 3.74949 0.00514333 3.35859 0.0822932 2.92141 0.0822932Z" fill="#001D3D" transform="matrix(1 0 0 1.01017 597.128 298.601)"/></g></svg>