<svg width="321" height="67" xmlns="http://www.w3.org/2000/svg" xmlns:xlink="http://www.w3.org/1999/xlink" xml:space="preserve" overflow="hidden"><defs><clipPath id="clip0"><rect x="528" y="524" width="321" height="67"/></clipPath></defs><g clip-path="url(#clip0)" transform="translate(-528 -524)"><path d="M382.705 216.285C382.907 215.818 383.187 215.403 383.546 215.045L399.722 198.792C400.079 198.434 400.495 198.154 400.955 197.946L400.955 206.89C400.955 207.507 400.893 208.12 400.775 208.726 400.655 209.328 400.479 209.915 400.24 210.485 400.006 211.056 399.722 211.595 399.379 212.109 399.036 212.623 398.653 213.1 398.217 213.535 397.781 213.971 397.309 214.36 396.8 214.703 396.293 215.045 395.752 215.336 395.182 215.569 394.617 215.808 394.03 215.984 393.428 216.104 392.826 216.223 392.219 216.285 391.607 216.285Z" fill="#003566" transform="matrix(1.00099 0 0 1 469.354 327.408)"/><path d="M408.67 257.56 400.868 249.72C400.38 249.254 399.986 248.714 399.69 248.107 399.39 247.5 399.202 246.862 399.129 246.188 399.052 245.518 399.094 244.854 399.249 244.195 399.41 243.537 399.674 242.925 400.043 242.359 400.277 242.032 400.541 241.732 400.841 241.461 401.137 241.191 401.459 240.959 401.812 240.756 402.159 240.559 402.523 240.398 402.906 240.279 403.29 240.159 403.685 240.081 404.084 240.051 404.483 240.015 404.883 240.024 405.277 240.077 405.677 240.133 406.066 240.227 406.439 240.367 406.818 240.507 407.176 240.684 407.514 240.902 407.851 241.12 408.162 241.368 408.447 241.654L411.057 244.326 422.169 233.156C422.631 232.668 423.165 232.275 423.767 231.973 424.368 231.677 425.007 231.491 425.671 231.413 426.34 231.34 427.004 231.382 427.653 231.543 428.306 231.704 428.913 231.973 429.473 232.346 429.8 232.58 430.102 232.844 430.371 233.146 430.641 233.441 430.874 233.769 431.076 234.121 431.273 234.469 431.434 234.837 431.553 235.22 431.673 235.609 431.751 236.004 431.782 236.404 431.819 236.809 431.808 237.207 431.751 237.607 431.699 238.007 431.6 238.401 431.465 238.78 431.325 239.158 431.144 239.517 430.932 239.854 430.712 240.195 430.459 240.507 430.173 240.793L413.49 257.56C413.168 257.881 412.799 258.124 412.385 258.296 411.964 258.467 411.528 258.556 411.082 258.556 410.631 258.556 410.195 258.467 409.781 258.296 409.36 258.124 408.992 257.881 408.67 257.56Z" fill="#66AD5C" transform="matrix(1.00099 0 0 1 469.354 327.408)"/><path d="M6.68191-4.46153C3.30464-8.15524 1.6186-12.6686 1.6186-18.0121 1.6186-23.366 3.30464-27.8949 6.68191-31.6042 10.054-35.3082 14.3495-37.1655 19.5685-37.1655 24.3516-37.1655 28.2944-35.6611 31.3966-32.6625L31.3966-60.5314 43.8474-60.5314 43.8474 0 31.5419 0 31.5419-4.08799 31.3966-4.08799C28.2944-0.653665 24.3516 1.05831 19.5685 1.05831 14.3495 1.05831 10.054-0.778173 6.68191-4.46153ZM17.2858-24.1337C15.6672-22.5411 14.8579-20.5022 14.8579-18.0121 14.8579-15.5323 15.6308-13.5091 17.182-11.932 18.7281-10.3549 20.772-9.56632 23.3037-9.56632 25.7367-9.56632 27.734-10.3601 29.3008-11.9527 30.8779-13.5557 31.6665-15.5739 31.6665-18.0121 31.6665-20.5022 30.8572-22.5411 29.2385-24.1337 27.62-25.7367 25.6382-26.5409 23.3037-26.5409 20.9069-26.5409 18.9044-25.7367 17.2858-24.1337Z" fill="#003566" transform="matrix(1.00099 0 0 1 537.503 585.651)"/><path d="M7.63646-4.29552C3.62109-7.86473 1.6186-12.4352 1.6186-18.0121 1.6186-23.5993 3.7041-28.1855 7.88548-31.7702 12.0617-35.3653 17.2236-37.1655 23.366-37.1655 29.4252-37.1655 34.5301-35.3601 38.6803-31.7494 42.8306-28.1387 44.9057-23.5579 44.9057-18.0121 44.9057-12.4767 42.872-7.91142 38.8049-4.31626 34.748-0.731482 29.6017 1.05831 23.366 1.05831 16.8916 1.05831 11.6466-0.726294 7.63646-4.29552ZM17.2858-24.1337C15.6672-22.5411 14.8579-20.5022 14.8579-18.0121 14.8579-15.5323 15.6308-13.5091 17.182-11.932 18.7281-10.3549 20.772-9.56632 23.3037-9.56632 25.7367-9.56632 27.734-10.3601 29.3008-11.9527 30.8779-13.5557 31.6665-15.5739 31.6665-18.0121 31.6665-20.5022 30.8572-22.5411 29.2385-24.1337 27.62-25.7367 25.6382-26.5409 23.3037-26.5409 20.9069-26.5409 18.9044-25.7367 17.2858-24.1337Z" fill="#003566" transform="matrix(1.00099 0 0 1 582.519 585.651)"/><path d="M23.4489-26.9559C21.0936-26.9559 19.0756-26.0843 17.3896-24.3412 15.6983-22.6084 14.8579-20.5281 14.8579-18.0951 14.8579-15.6049 15.6983-13.4883 17.3896-11.7452 19.0756-10.0125 21.0936-9.1513 23.4489-9.1513 24.5695-9.1513 25.633-9.28619 26.6446-9.56632 27.651-9.85685 28.3929-10.137 28.865-10.4171L29.4875-10.8322 33.7208-2.17888C33.3887-1.94025 32.9219-1.64454 32.3305-1.28658 31.7494-0.938994 30.4109-0.461715 28.3254 0.145259 26.2348 0.752233 23.9936 1.05831 21.602 1.05831 16.3001 1.05831 11.6466-0.798923 7.63646-4.52377 3.62109-8.259 1.6186-12.7309 1.6186-17.9498 1.6186-23.2052 3.62109-27.7237 7.63646-31.5005 11.6466-35.2771 16.3001-37.1655 21.602-37.1655 23.9936-37.1655 26.1985-36.8801 28.2217-36.3148 30.2397-35.7596 31.6717-35.1993 32.5173-34.6338L33.7208-33.783 29.4875-25.275C27.9364-26.3956 25.9235-26.9559 23.4489-26.9559Z" fill="#003566" transform="matrix(1.00099 0 0 1 625.985 585.651)"/><path d="M15.9784-36.1072 15.9784-18.9251C15.9784-15.3663 16.518-12.8346 17.5971-11.3302 18.6761-9.8361 20.5022-9.08905 23.0754-9.08905 25.6589-9.08905 27.4954-9.8361 28.5744-11.3302 29.6535-12.8346 30.1931-15.3663 30.1931-18.9251L30.1931-36.1072 42.6646-36.1072 42.6646-15.9162C42.6646-9.89834 41.0979-5.56134 37.9749-2.90518 34.8466-0.25939 29.8818 1.05831 23.0754 1.05831 16.2793 1.05831 11.3198-0.25939 8.19675-2.90518 5.08405-5.56134 3.52771-9.89834 3.52771-15.9162L3.52771-36.1072Z" fill="#003566" transform="matrix(1.00099 0 0 1 657.474 585.651)"/><path d="M19.9212-37.1655C21.9808-37.1655 24.0195-36.9269 26.0429-36.4599 28.0609-35.9879 29.5602-35.5158 30.5459-35.0488L32.0192-34.3434 27.952-26.1882C25.1298-27.6822 22.4528-28.4292 19.9212-28.4292 18.5101-28.4292 17.5037-28.2736 16.9123-27.9727 16.3313-27.6666 16.0407-27.0907 16.0407-26.2503 16.0407-26.0688 16.0615-25.882 16.103-25.6901 16.1549-25.5084 16.2534-25.3373 16.3936-25.1712 16.5439-25.0052 16.6737-24.8601 16.7877-24.7355 16.8968-24.6214 17.0887-24.4917 17.3688-24.3412 17.6594-24.2012 17.8877-24.0974 18.0537-24.03 18.2197-23.9574 18.4894-23.8535 18.8629-23.7187 19.2365-23.5786 19.5114-23.4749 19.6929-23.4074 19.885-23.3348 20.2013-23.2259 20.6475-23.0754 21.104-22.9353 21.4464-22.8471 21.685-22.8057 23.1377-22.3751 24.4035-21.903 25.4825-21.3946 26.5616-20.881 27.6926-20.1754 28.8858-19.2779 30.0893-18.3909 31.0128-17.265 31.6665-15.8955 32.3305-14.5362 32.6625-12.9955 32.6625-11.2679 32.6625-3.05044 26.9611 1.05831 15.5635 1.05831 12.9747 1.05831 10.5209 0.66404 8.19675-0.124508 5.87261-0.92343 4.19695-1.72754 3.17494-2.53165L1.6186-3.79749 6.68191-12.3262C7.05543-11.9942 7.54309-11.6 8.15524-11.1434 8.77779-10.6973 9.88279-10.0903 11.4754-9.31731 13.0629-8.53915 14.4481-8.15524 15.6257-8.15524 18.2092-8.15524 19.5062-9.0268 19.5062-10.7699 19.5062-11.5688 19.1742-12.1914 18.5101-12.6375 17.8564-13.0785 16.7463-13.5766 15.1692-14.1316 13.5921-14.6971 12.3574-15.2158 11.4754-15.688 9.21875-16.8604 7.43414-18.1885 6.12163-19.6722 4.80392-21.1507 4.15025-23.1065 4.15025-25.5448 4.15025-29.2074 5.56653-32.0607 8.40425-34.0943 11.2524-36.1383 15.0914-37.1655 19.9212-37.1655Z" fill="#88A53D" transform="matrix(1.00099 0 0 1 700.583 585.651)"/><path d="M6.68191-4.46153C3.30464-8.15524 1.6186-12.6686 1.6186-18.0121 1.6186-23.366 3.30464-27.8949 6.68191-31.6042 10.054-35.3082 14.3495-37.1655 19.5685-37.1655 24.3516-37.1655 28.2944-35.6611 31.3966-32.6625L31.3966-36.1072 43.8474-36.1072 43.8474 0 31.5419 0 31.5419-4.08799 31.3966-4.08799C28.2944-0.653665 24.3516 1.05831 19.5685 1.05831 14.3495 1.05831 10.054-0.778173 6.68191-4.46153ZM17.2858-24.1337C15.6672-22.5411 14.8579-20.5022 14.8579-18.0121 14.8579-15.5323 15.6308-13.5091 17.182-11.932 18.7281-10.3549 20.772-9.56632 23.3037-9.56632 25.7367-9.56632 27.734-10.3601 29.3008-11.9527 30.8779-13.5557 31.6665-15.5739 31.6665-18.0121 31.6665-20.5022 30.8572-22.5411 29.2385-24.1337 27.62-25.7367 25.6382-26.5409 23.3037-26.5409 20.9069-26.5409 18.9044-25.7367 17.2858-24.1337Z" fill="#88A53D" transform="matrix(1.00099 0 0 1 732.144 585.651)"/><path d="M6.32913-36.1072 6.32913-43.7852C6.38102-49.1804 7.64684-53.4967 10.1266-56.734 12.6168-59.9711 16.0667-61.5897 20.4815-61.5897 22.3594-61.5897 24.1545-61.32 25.8561-60.7804 27.568-60.2409 28.8079-59.6858 29.5705-59.1203L30.7533-58.3525 26.3956-49.554C25.275-50.2025 24.03-50.5294 22.6604-50.5294 21.1092-50.5294 20.0769-50.0001 19.5685-48.9523 19.0549-47.8991 18.8006-46.0574 18.8006-43.4324L18.8006-36.1072 27.1011-36.1072 27.1011-26.603 18.8006-26.603 18.8006 0 6.32913 0 6.32913-26.603 1.12057-26.603 1.12057-36.1072Z" fill="#88A53D" transform="matrix(1.00099 0 0 1 777.159 585.651)"/><path d="M40.7555-16.3313 14.5674-16.3313C14.5674-13.7996 15.387-11.9164 17.0368-10.6869 18.6813-9.46777 20.466-8.86079 22.3906-8.86079 24.4087-8.86079 26.0013-9.13055 27.1634-9.67009 28.3358-10.2096 29.6795-11.2783 31.1892-12.8865L40.1952-8.38351C36.4289-2.0855 30.1931 1.05831 21.4776 1.05831 16.0252 1.05831 11.3509-0.798923 7.44971-4.52377 3.55884-8.259 1.6186-12.7516 1.6186-18.0121 1.6186-23.2673 3.55884-27.7704 7.44971-31.5212 11.3509-35.2823 16.0252-37.1655 21.4776-37.1655 27.1894-37.1655 31.8377-35.5106 35.4224-32.206 39.0175-28.8961 40.8178-24.1648 40.8178-18.0121 40.8178-17.1665 40.797-16.6062 40.7555-16.3313ZM14.9202-23.2207 28.6575-23.2207C28.367-25.0986 27.62-26.5461 26.4163-27.5577 25.2232-28.5641 23.698-29.0725 21.8303-29.0725 19.7552-29.0725 18.1055-28.533 16.8916-27.4539 15.6724-26.3749 15.0136-24.9638 14.9202-23.2207Z" fill="#88A53D" transform="matrix(1.00099 0 0 1 800.476 585.651)"/><path d="M3.54847 0.083005C2.92592 0.083005 2.3864-0.0415025 1.92986-0.290518 1.48372-0.549908 1.1517-0.881928 0.933807-1.28658 0.71073-1.7016 0.601786-2.127 0.601786-2.57316L0.601786-2.63542 1.7016-2.63542 1.7016-2.57316C1.7016-2.30858 1.76385-2.03882 1.88837-1.76385 2.01287-1.49928 2.21001-1.2762 2.49015-1.09982 2.78067-0.918243 3.13863-0.83005 3.56922-0.83005 4.07762-0.83005 4.50302-0.959745 4.83504-1.22432 5.16706-1.48372 5.33307-1.83648 5.33307-2.28264 5.33307-2.65616 5.20857-2.95187 4.95956-3.17494 4.72091-3.39283 4.40964-3.53809 4.02574-3.61072L2.84292-3.83898C1.48372-4.12951 0.809299-4.84023 0.809299-5.97636 0.809299-6.43289 0.918243-6.83235 1.14132-7.17994 1.35921-7.53789 1.67047-7.80767 2.07513-7.98923 2.47459-8.18119 2.93631-8.27976 3.46547-8.27976 4.05687-8.27976 4.56528-8.15524 4.9803-7.90622 5.4057-7.66759 5.72735-7.35632 5.93486-6.97242 6.15274-6.5989 6.26688-6.20981 6.26688-5.81035L6.26688-5.74809 5.16706-5.74809 5.16706-5.78961C5.16706-6.02306 5.11-6.25651 5.00105-6.49514 4.88692-6.74415 4.70016-6.95686 4.44077-7.13843 4.19175-7.31482 3.84936-7.40819 3.42395-7.40819 2.93631-7.40819 2.55241-7.26813 2.26188-6.99317 1.97138-6.7286 1.82611-6.39139 1.82611-5.97636 1.82611-5.64434 1.93505-5.3642 2.15813-5.14631 2.39158-4.9388 2.69766-4.79355 3.07119-4.71054L4.15025-4.50302C5.62878-4.19695 6.37064-3.47065 6.37064-2.32414 6.37064-1.85205 6.25131-1.43183 6.01786-1.05831 5.77922-0.695168 5.4472-0.415025 5.0218-0.207513 4.59121-0.0103756 4.09838 0.083005 3.54847 0.083005Z" fill="#001D3D" transform="matrix(1.00099 0 0 1 539.928 605)"/><path d="M0.954558-6.10087 1.95062-6.10087 1.95062 0 0.954558 0ZM1.43183-7.24218C1.25026-7.24218 1.09982-7.30444 0.975309-7.42895 0.850802-7.55346 0.788548-7.7039 0.788548-7.88548 0.788548-8.06186 0.850802-8.2175 0.975309-8.34201 1.09982-8.46651 1.25026-8.52877 1.43183-8.52877 1.62379-8.52877 1.78461-8.46651 1.90912-8.34201 2.03362-8.2175 2.09587-8.06186 2.09587-7.88548 2.09587-7.7039 2.03362-7.55346 1.90912-7.42895 1.78461-7.30444 1.62379-7.24218 1.43183-7.24218Z" fill="#001D3D" transform="matrix(1.00099 0 0 1 547.616 605)"/><path d="M2.94668 0.083005C2.45902 0.083005 2.03362-0.0103756 1.6601-0.207513 1.29695-0.415025 1.022-0.669228 0.83005-0.975309 0.648476-1.2762 0.560284-1.60303 0.560284-1.95062L0.560284-2.01287 1.55635-2.01287 1.55635-1.95062C1.55635-1.75348 1.60303-1.56153 1.7016-1.36958 1.81055-1.18801 1.97656-1.03756 2.19963-0.913055 2.41752-0.798923 2.6821-0.747045 2.98818-0.747045 3.3617-0.747045 3.66259-0.835238 3.90124-1.01681 4.15025-1.1932 4.27476-1.44222 4.27476-1.76385 4.27476-2.02325 4.17619-2.23076 3.98424-2.3864 3.80267-2.53685 3.56922-2.63542 3.2787-2.67691L2.46941-2.80143C1.97138-2.88443 1.54597-3.05562 1.20357-3.3202 0.871553-3.57959 0.705543-3.96868 0.705543-4.48227 0.705543-5.04774 0.90268-5.48353 1.30733-5.78961 1.72236-6.10606 2.24114-6.26688 2.86367-6.26688 3.33057-6.26688 3.73523-6.1735 4.06725-5.99711 4.40964-5.8311 4.67422-5.60284 4.85579-5.31232 5.03218-5.03218 5.12557-4.73129 5.12557-4.39927L5.12557-4.35776 4.12951-4.35776 4.12951-4.37852C4.12951-4.52897 4.08799-4.68978 4.00499-4.85579 3.92198-5.03218 3.78192-5.17744 3.58996-5.29158 3.39283-5.41607 3.14382-5.47833 2.84292-5.47833 2.46941-5.47833 2.1685-5.38495 1.95062-5.20857 1.72754-5.027 1.6186-4.79355 1.6186-4.50302 1.6186-4.26439 1.7068-4.06725 1.88837-3.90124 2.06475-3.7456 2.28783-3.65222 2.55241-3.61072L3.42395-3.46547C3.93237-3.38246 4.36296-3.20607 4.71054-2.94668 5.05293-2.6821 5.22932-2.28783 5.22932-1.76385 5.22932-1.40071 5.13075-1.07907 4.9388-0.788548 4.74166-0.508405 4.4719-0.295705 4.12951-0.145259 3.78192 0.00518781 3.38764 0.083005 2.94668 0.083005Z" fill="#001D3D" transform="matrix(1.00099 0 0 1 551.257 605)"/><path d="M2.5109-5.31232 2.5109-1.76385C2.5109-1.47335 2.51609-1.25545 2.53165-1.12057 2.55759-0.99606 2.63542-0.892304 2.75991-0.809299 2.88443-0.726294 3.07638-0.684792 3.34095-0.684792 3.53291-0.684792 3.73523-0.71073 3.94274-0.767797L3.94274-0.0622538C3.88567-0.0311269 3.76636-0.0103756 3.58996 0 3.4084 0.025939 3.22163 0.0415025 3.02968 0.0415025 2.58353 0.0415025 2.25151-0.0207513 2.03362-0.145259 1.81055-0.269766 1.66529-0.440964 1.59784-0.66404 1.54079-0.881928 1.51484-1.17245 1.51484-1.53559L1.51484-5.31232 0.373523-5.31232 0.373523-6.10087 1.51484-6.10087 1.51484-8.11375 2.5109-8.11375 2.5109-6.10087 3.94274-6.10087 3.94274-5.31232Z" fill="#001D3D" transform="matrix(1.00099 0 0 1 557.75 605)"/><path d="M3.44471 0.083005C2.82217 0.083005 2.29301-0.0674415 1.86761-0.373523 1.43702-0.674415 1.11019-1.06869 0.892304-1.55635 0.684792-2.03882 0.581035-2.55241 0.581035-3.09193 0.581035-3.64185 0.684792-4.15544 0.892304-4.62754 1.11019-5.11 1.43702-5.50427 1.86761-5.81035 2.29301-6.11124 2.82217-6.26688 3.44471-6.26688 4.25919-6.26688 4.90767-5.98673 5.39533-5.43683 5.89336-4.8973 6.14237-4.10875 6.14237-3.07119L6.14237-2.80143 1.5771-2.80143 1.5771-2.71842C1.5771-2.3864 1.64973-2.06475 1.80537-1.76385 1.97138-1.45778 2.18926-1.20876 2.46941-1.01681 2.74436-0.835238 3.06081-0.747045 3.42395-0.747045 3.82342-0.747045 4.16062-0.840425 4.44077-1.03756 4.73129-1.24508 4.94399-1.52003 5.08405-1.86761L6.05937-1.86761C5.90373-1.31252 5.60803-0.850802 5.16706-0.477279 4.72091-0.103756 4.15025 0.083005 3.44471 0.083005ZM5.16706-3.50696C5.13594-4.19695 4.96474-4.69498 4.64828-5.00105 4.3422-5.31751 3.94274-5.47833 3.44471-5.47833 2.88961-5.47833 2.44865-5.29158 2.11663-4.91804 1.79498-4.5549 1.62897-4.08799 1.6186-3.50696Z" fill="#001D3D" transform="matrix(1.00099 0 0 1 563.049 605)"/><path d="M0.871553-6.10087 1.84686-6.10087 1.84686-4.9803 1.95062-4.9803C1.96099-5.06331 2.03882-5.19819 2.17888-5.39533 2.31377-5.60284 2.52128-5.79479 2.80143-5.97636 3.09193-6.16831 3.4499-6.26688 3.88049-6.26688 4.32145-6.26688 4.68978-6.16312 4.9803-5.95562 5.28119-5.74809 5.50427-5.51983 5.64434-5.27082 5.79479-5.03218 5.87261-4.88692 5.87261-4.83504L5.97636-4.83504C6.0853-5.09444 6.29801-5.40052 6.61966-5.74809 6.93611-6.0905 7.42895-6.26688 8.09299-6.26688 8.59102-6.26688 9.00605-6.14237 9.33807-5.89336 9.67009-5.64434 9.90873-5.31751 10.0644-4.91804 10.2304-4.52897 10.3134-4.10875 10.3134-3.65222L10.3134 0 9.31731 0 9.31731-3.56922C9.31731-4.15025 9.16168-4.59121 8.86079-4.8973 8.55471-5.19819 8.18119-5.35382 7.74021-5.35382 7.26813-5.35382 6.87385-5.19301 6.5574-4.87655 6.23575-4.57047 6.08011-4.13469 6.08011-3.56922L6.08011 0 5.10481 0 5.10481-3.56922C5.10481-4.15025 4.94399-4.59121 4.62754-4.8973 4.32145-5.19819 3.94793-5.35382 3.50696-5.35382 3.05044-5.35382 2.65616-5.19301 2.32414-4.87655 2.00249-4.57047 1.84686-4.13469 1.84686-3.56922L1.84686 0 0.871553 0Z" fill="#001D3D" transform="matrix(1.00099 0 0 1 570.552 605)"/><path d="M3.11269 0.083005C2.55759 0.083005 2.0855-0.0518781 1.7016-0.33202 1.32808-0.606974 1.03756-0.980497 0.83005-1.45259 0.632913-1.93505 0.539533-2.47978 0.539533-3.09193 0.539533-3.69892 0.643289-4.23845 0.850802-4.71054 1.05831-5.19301 1.35402-5.57171 1.74311-5.85185 2.127-6.12681 2.5939-6.26688 3.13345-6.26688 3.67297-6.26688 4.10875-6.132 4.44077-5.87261 4.77279-5.6236 5.027-5.31751 5.20857-4.95956L5.27082-4.95956 5.27082-6.10087 6.28764-6.10087 6.28764 0 5.27082 0 5.27082-1.24508 5.20857-1.24508C5.01143-0.881928 4.74166-0.57066 4.39927-0.311269 4.06725-0.0466903 3.63666 0.083005 3.11269 0.083005ZM3.42395-0.767797C4.01537-0.767797 4.46671-0.985685 4.77279-1.43183 5.08924-1.88837 5.25006-2.43828 5.25006-3.09193 5.25006-3.74042 5.08924-4.28513 4.77279-4.73129 4.46671-5.18781 4.01537-5.41607 3.42395-5.41607 2.8118-5.41607 2.35008-5.19301 2.03362-4.75203 1.71198-4.30589 1.55635-3.76116 1.55635-3.11269 1.55635-2.44865 1.71198-1.88837 2.03362-1.43183 2.35008-0.985685 2.8118-0.767797 3.42395-0.767797Z" fill="#001D3D" transform="matrix(1.00099 0 0 1 582.402 605)"/><path d="M3.13345 0.083005C2.5939 0.083005 2.127-0.0518781 1.74311-0.33202 1.35402-0.606974 1.05831-0.980497 0.850802-1.45259 0.653665-1.93505 0.560284-2.47978 0.560284-3.09193 0.560284-3.69892 0.653665-4.23845 0.850802-4.71054 1.05831-5.19301 1.35402-5.57171 1.74311-5.85185 2.127-6.12681 2.59909-6.26688 3.15419-6.26688 3.69372-6.26688 4.12951-6.132 4.46153-5.87261 4.79355-5.60803 5.04256-5.30195 5.20857-4.95956L5.31232-4.95956 5.31232-8.67403 6.30838-8.67403 6.30838 0 5.31232 0 5.31232-1.24508 5.20857-1.24508C5.027-0.871553 4.76242-0.549908 4.42001-0.290518 4.08799-0.0415025 3.65741 0.083005 3.13345 0.083005ZM3.42395-0.767797C4.03094-0.767797 4.48746-0.985685 4.79355-1.43183 5.11-1.88837 5.27082-2.43828 5.27082-3.09193 5.27082-3.74042 5.11-4.28513 4.79355-4.73129 4.48746-5.17225 4.03094-5.39533 3.42395-5.39533 2.8118-5.39533 2.35008-5.17225 2.03362-4.73129 1.72754-4.28513 1.5771-3.74042 1.5771-3.09193 1.5771-2.42789 1.73273-1.87281 2.05438-1.43183 2.37084-0.985685 2.82736-0.767797 3.42395-0.767797Z" fill="#001D3D" transform="matrix(1.00099 0 0 1 593.743 605)"/><path d="M3.44471 0.083005C2.82217 0.083005 2.29301-0.0674415 1.86761-0.373523 1.43702-0.674415 1.11019-1.06869 0.892304-1.55635 0.684792-2.03882 0.581035-2.55241 0.581035-3.09193 0.581035-3.64185 0.684792-4.15544 0.892304-4.62754 1.11019-5.11 1.43702-5.50427 1.86761-5.81035 2.29301-6.11124 2.82217-6.26688 3.44471-6.26688 4.25919-6.26688 4.90767-5.98673 5.39533-5.43683 5.89336-4.8973 6.14237-4.10875 6.14237-3.07119L6.14237-2.80143 1.5771-2.80143 1.5771-2.71842C1.5771-2.3864 1.64973-2.06475 1.80537-1.76385 1.97138-1.45778 2.18926-1.20876 2.46941-1.01681 2.74436-0.835238 3.06081-0.747045 3.42395-0.747045 3.82342-0.747045 4.16062-0.840425 4.44077-1.03756 4.73129-1.24508 4.94399-1.52003 5.08405-1.86761L6.05937-1.86761C5.90373-1.31252 5.60803-0.850802 5.16706-0.477279 4.72091-0.103756 4.15025 0.083005 3.44471 0.083005ZM5.16706-3.50696C5.13594-4.19695 4.96474-4.69498 4.64828-5.00105 4.3422-5.31751 3.94274-5.47833 3.44471-5.47833 2.88961-5.47833 2.44865-5.29158 2.11663-4.91804 1.79498-4.5549 1.62897-4.08799 1.6186-3.50696Z" fill="#001D3D" transform="matrix(1.00099 0 0 1 601.663 605)"/><path d="M4.12951 0.083005C3.34095 0.083005 2.6821-0.114132 2.15813-0.518781 1.62897-0.933807 1.24508-1.45259 0.99606-2.07513 0.747045-2.70804 0.622538-3.38246 0.622538-4.08799 0.622538-4.79355 0.747045-5.46277 0.99606-6.10087 1.24508-6.73378 1.63936-7.25257 2.17888-7.65721 2.72879-8.07223 3.4084-8.27976 4.21251-8.27976 5.11-8.27976 5.83629-8.03074 6.39139-7.53271 6.95686-7.04506 7.35114-6.43808 7.5742-5.7066L6.51589-5.7066C6.36026-6.215 6.0905-6.61966 5.7066-6.91016 5.31751-7.21107 4.81948-7.3667 4.21251-7.3667 3.4084-7.3667 2.78067-7.0658 2.32414-6.47439 1.86761-5.89336 1.63936-5.08924 1.63936-4.06725 1.63936-3.04006 1.86761-2.23076 2.32414-1.63936 2.79104-1.05831 3.43434-0.767797 4.254-0.767797 4.73648-0.767797 5.1515-0.861178 5.49908-1.05831 5.85705-1.26583 6.132-1.54597 6.32913-1.90912 6.52109-2.26707 6.61966-2.66653 6.61966-3.11269L6.6404-3.44471 4.35776-3.44471 4.35776-4.19175 7.5742-4.19175 7.5742 0 6.76491 0 6.76491-1.34883 6.68191-1.34883C6.6404-1.22432 6.53665-1.05831 6.37064-0.850802 6.20463-0.643289 5.93486-0.435776 5.56134-0.228264 5.18781-0.0207513 4.71054 0.083005 4.12951 0.083005Z" fill="#001D3D" transform="matrix(1.00099 0 0 1 612.574 605)"/><path d="M3.44471 0.083005C2.82217 0.083005 2.29301-0.0674415 1.86761-0.373523 1.43702-0.674415 1.11019-1.06869 0.892304-1.55635 0.684792-2.03882 0.581035-2.55241 0.581035-3.09193 0.581035-3.64185 0.684792-4.15544 0.892304-4.62754 1.11019-5.11 1.43702-5.50427 1.86761-5.81035 2.29301-6.11124 2.82217-6.26688 3.44471-6.26688 4.25919-6.26688 4.90767-5.98673 5.39533-5.43683 5.89336-4.8973 6.14237-4.10875 6.14237-3.07119L6.14237-2.80143 1.5771-2.80143 1.5771-2.71842C1.5771-2.3864 1.64973-2.06475 1.80537-1.76385 1.97138-1.45778 2.18926-1.20876 2.46941-1.01681 2.74436-0.835238 3.06081-0.747045 3.42395-0.747045 3.82342-0.747045 4.16062-0.840425 4.44077-1.03756 4.73129-1.24508 4.94399-1.52003 5.08405-1.86761L6.05937-1.86761C5.90373-1.31252 5.60803-0.850802 5.16706-0.477279 4.72091-0.103756 4.15025 0.083005 3.44471 0.083005ZM5.16706-3.50696C5.13594-4.19695 4.96474-4.69498 4.64828-5.00105 4.3422-5.31751 3.94274-5.47833 3.44471-5.47833 2.88961-5.47833 2.44865-5.29158 2.11663-4.91804 1.79498-4.5549 1.62897-4.08799 1.6186-3.50696Z" fill="#001D3D" transform="matrix(1.00099 0 0 1 621.619 605)"/><path d="M2.94668 0.083005C2.45902 0.083005 2.03362-0.0103756 1.6601-0.207513 1.29695-0.415025 1.022-0.669228 0.83005-0.975309 0.648476-1.2762 0.560284-1.60303 0.560284-1.95062L0.560284-2.01287 1.55635-2.01287 1.55635-1.95062C1.55635-1.75348 1.60303-1.56153 1.7016-1.36958 1.81055-1.18801 1.97656-1.03756 2.19963-0.913055 2.41752-0.798923 2.6821-0.747045 2.98818-0.747045 3.3617-0.747045 3.66259-0.835238 3.90124-1.01681 4.15025-1.1932 4.27476-1.44222 4.27476-1.76385 4.27476-2.02325 4.17619-2.23076 3.98424-2.3864 3.80267-2.53685 3.56922-2.63542 3.2787-2.67691L2.46941-2.80143C1.97138-2.88443 1.54597-3.05562 1.20357-3.3202 0.871553-3.57959 0.705543-3.96868 0.705543-4.48227 0.705543-5.04774 0.90268-5.48353 1.30733-5.78961 1.72236-6.10606 2.24114-6.26688 2.86367-6.26688 3.33057-6.26688 3.73523-6.1735 4.06725-5.99711 4.40964-5.8311 4.67422-5.60284 4.85579-5.31232 5.03218-5.03218 5.12557-4.73129 5.12557-4.39927L5.12557-4.35776 4.12951-4.35776 4.12951-4.37852C4.12951-4.52897 4.08799-4.68978 4.00499-4.85579 3.92198-5.03218 3.78192-5.17744 3.58996-5.29158 3.39283-5.41607 3.14382-5.47833 2.84292-5.47833 2.46941-5.47833 2.1685-5.38495 1.95062-5.20857 1.72754-5.027 1.6186-4.79355 1.6186-4.50302 1.6186-4.26439 1.7068-4.06725 1.88837-3.90124 2.06475-3.7456 2.28783-3.65222 2.55241-3.61072L3.42395-3.46547C3.93237-3.38246 4.36296-3.20607 4.71054-2.94668 5.05293-2.6821 5.22932-2.28783 5.22932-1.76385 5.22932-1.40071 5.13075-1.07907 4.9388-0.788548 4.74166-0.508405 4.4719-0.295705 4.12951-0.145259 3.78192 0.00518781 3.38764 0.083005 2.94668 0.083005Z" fill="#001D3D" transform="matrix(1.00099 0 0 1 629.121 605)"/><path d="M2.5109-5.31232 2.5109-1.76385C2.5109-1.47335 2.51609-1.25545 2.53165-1.12057 2.55759-0.99606 2.63542-0.892304 2.75991-0.809299 2.88443-0.726294 3.07638-0.684792 3.34095-0.684792 3.53291-0.684792 3.73523-0.71073 3.94274-0.767797L3.94274-0.0622538C3.88567-0.0311269 3.76636-0.0103756 3.58996 0 3.4084 0.025939 3.22163 0.0415025 3.02968 0.0415025 2.58353 0.0415025 2.25151-0.0207513 2.03362-0.145259 1.81055-0.269766 1.66529-0.440964 1.59784-0.66404 1.54079-0.881928 1.51484-1.17245 1.51484-1.53559L1.51484-5.31232 0.373523-5.31232 0.373523-6.10087 1.51484-6.10087 1.51484-8.11375 2.5109-8.11375 2.5109-6.10087 3.94274-6.10087 3.94274-5.31232Z" fill="#001D3D" transform="matrix(1.00099 0 0 1 635.614 605)"/><path d="M0.954558-6.10087 1.95062-6.10087 1.95062 0 0.954558 0ZM1.43183-7.24218C1.25026-7.24218 1.09982-7.30444 0.975309-7.42895 0.850802-7.55346 0.788548-7.7039 0.788548-7.88548 0.788548-8.06186 0.850802-8.2175 0.975309-8.34201 1.09982-8.46651 1.25026-8.52877 1.43183-8.52877 1.62379-8.52877 1.78461-8.46651 1.90912-8.34201 2.03362-8.2175 2.09587-8.06186 2.09587-7.88548 2.09587-7.7039 2.03362-7.55346 1.90912-7.42895 1.78461-7.30444 1.62379-7.24218 1.43183-7.24218Z" fill="#001D3D" transform="matrix(1.00099 0 0 1 640.914 605)"/><path d="M3.44471 0.083005C2.83254 0.083005 2.31377-0.0622538 1.88837-0.352771 1.45778-0.653665 1.13094-1.04794 0.913055-1.53559 0.689979-2.01806 0.581035-2.53685 0.581035-3.09193 0.581035-3.64185 0.689979-4.16062 0.913055-4.64828 1.13094-5.13075 1.45778-5.51983 1.88837-5.81035 2.31377-6.11124 2.83254-6.26688 3.44471-6.26688 4.06725-6.26688 4.59121-6.11124 5.0218-5.81035 5.4472-5.51983 5.76885-5.13075 5.97636-4.64828 6.19425-4.16062 6.30838-3.64185 6.30838-3.09193 6.30838-2.53685 6.19425-2.01806 5.97636-1.53559 5.75328-1.04794 5.42646-0.653665 5.00105-0.352771 4.57047-0.0622538 4.05168 0.083005 3.44471 0.083005ZM3.44471-0.767797C3.8286-0.767797 4.16062-0.871553 4.44077-1.07907 4.71572-1.29695 4.92843-1.58229 5.08405-1.92986 5.23451-2.27227 5.31232-2.66653 5.31232-3.11269 5.31232-3.77673 5.14631-4.32145 4.81429-4.75203 4.48227-5.19301 4.02574-5.41607 3.44471-5.41607 3.05562-5.41607 2.7236-5.31232 2.44865-5.10481 2.1685-4.8973 1.95581-4.61197 1.80537-4.254 1.64973-3.90643 1.5771-3.52771 1.5771-3.11269 1.5771-2.44865 1.74311-1.88837 2.07513-1.43183 2.40715-0.985685 2.86367-0.767797 3.44471-0.767797ZM3.09193-6.93092 4.21251-9.00605 5.29158-9.00605 3.88049-6.93092Z" fill="#001D3D" transform="matrix(1.00099 0 0 1 644.554 605)"/><path d="M0.871553-6.10087 1.86761-6.10087 1.86761-5.00105 1.95062-5.00105C2.10106-5.35902 2.35008-5.65471 2.69766-5.89336 3.05562-6.14237 3.48621-6.26688 3.98424-6.26688 4.49264-6.26688 4.92323-6.14237 5.27082-5.89336 5.62878-5.65471 5.89336-5.33826 6.05937-4.9388 6.22538-4.53415 6.30838-4.10875 6.30838-3.65222L6.30838 0 5.31232 0 5.31232-3.52771C5.31232-4.11912 5.1515-4.57565 4.83504-4.8973 4.5134-5.21375 4.10875-5.37458 3.61072-5.37458 3.08156-5.37458 2.66135-5.19819 2.34489-4.85579 2.02325-4.50821 1.86761-4.06725 1.86761-3.52771L1.86761 0 0.871553 0Z" fill="#001D3D" transform="matrix(1.00099 0 0 1 652.195 605)"/><path d="M3.13345 0.083005C2.5939 0.083005 2.127-0.0518781 1.74311-0.33202 1.35402-0.606974 1.05831-0.980497 0.850802-1.45259 0.653665-1.93505 0.560284-2.47978 0.560284-3.09193 0.560284-3.69892 0.653665-4.23845 0.850802-4.71054 1.05831-5.19301 1.35402-5.57171 1.74311-5.85185 2.127-6.12681 2.59909-6.26688 3.15419-6.26688 3.69372-6.26688 4.12951-6.132 4.46153-5.87261 4.79355-5.60803 5.04256-5.30195 5.20857-4.95956L5.31232-4.95956 5.31232-8.67403 6.30838-8.67403 6.30838 0 5.31232 0 5.31232-1.24508 5.20857-1.24508C5.027-0.871553 4.76242-0.549908 4.42001-0.290518 4.08799-0.0415025 3.65741 0.083005 3.13345 0.083005ZM3.42395-0.767797C4.03094-0.767797 4.48746-0.985685 4.79355-1.43183 5.11-1.88837 5.27082-2.43828 5.27082-3.09193 5.27082-3.74042 5.11-4.28513 4.79355-4.73129 4.48746-5.17225 4.03094-5.39533 3.42395-5.39533 2.8118-5.39533 2.35008-5.17225 2.03362-4.73129 1.72754-4.28513 1.5771-3.74042 1.5771-3.09193 1.5771-2.42789 1.73273-1.87281 2.05438-1.43183 2.37084-0.985685 2.82736-0.767797 3.42395-0.767797Z" fill="#001D3D" transform="matrix(1.00099 0 0 1 663.443 605)"/><path d="M3.44471 0.083005C2.82217 0.083005 2.29301-0.0674415 1.86761-0.373523 1.43702-0.674415 1.11019-1.06869 0.892304-1.55635 0.684792-2.03882 0.581035-2.55241 0.581035-3.09193 0.581035-3.64185 0.684792-4.15544 0.892304-4.62754 1.11019-5.11 1.43702-5.50427 1.86761-5.81035 2.29301-6.11124 2.82217-6.26688 3.44471-6.26688 4.25919-6.26688 4.90767-5.98673 5.39533-5.43683 5.89336-4.8973 6.14237-4.10875 6.14237-3.07119L6.14237-2.80143 1.5771-2.80143 1.5771-2.71842C1.5771-2.3864 1.64973-2.06475 1.80537-1.76385 1.97138-1.45778 2.18926-1.20876 2.46941-1.01681 2.74436-0.835238 3.06081-0.747045 3.42395-0.747045 3.82342-0.747045 4.16062-0.840425 4.44077-1.03756 4.73129-1.24508 4.94399-1.52003 5.08405-1.86761L6.05937-1.86761C5.90373-1.31252 5.60803-0.850802 5.16706-0.477279 4.72091-0.103756 4.15025 0.083005 3.44471 0.083005ZM5.16706-3.50696C5.13594-4.19695 4.96474-4.69498 4.64828-5.00105 4.3422-5.31751 3.94274-5.47833 3.44471-5.47833 2.88961-5.47833 2.44865-5.29158 2.11663-4.91804 1.79498-4.5549 1.62897-4.08799 1.6186-3.50696Z" fill="#001D3D" transform="matrix(1.00099 0 0 1 671.362 605)"/><path d="M0.871553-8.11375 3.83898-8.11375C4.5549-8.11375 5.18781-7.94774 5.72735-7.61572 6.27725-7.2837 6.70266-6.81161 6.99317-6.20463 7.29407-5.60803 7.44971-4.8973 7.44971-4.06725 7.44971-3.2372 7.29407-2.5109 6.99317-1.88837 6.70266-1.2762 6.27725-0.809299 5.72735-0.477279 5.18781-0.155635 4.54971 0 3.81823 0L0.871553 0ZM3.67297-0.933807C4.50302-0.933807 5.15668-1.1932 5.64434-1.72236 6.14237-2.26188 6.39139-3.04006 6.39139-4.06725 6.39139-5.08924 6.14237-5.86223 5.64434-6.39139 5.15668-6.93092 4.50302-7.20069 3.67297-7.20069L1.84686-7.20069 1.84686-0.933807Z" fill="#001D3D" transform="matrix(1.00099 0 0 1 682.274 605)"/><path d="M3.44471 0.083005C2.83254 0.083005 2.31377-0.0622538 1.88837-0.352771 1.45778-0.653665 1.13094-1.04794 0.913055-1.53559 0.689979-2.01806 0.581035-2.53685 0.581035-3.09193 0.581035-3.64185 0.689979-4.16062 0.913055-4.64828 1.13094-5.13075 1.45778-5.51983 1.88837-5.81035 2.31377-6.11124 2.83254-6.26688 3.44471-6.26688 4.06725-6.26688 4.59121-6.11124 5.0218-5.81035 5.4472-5.51983 5.76885-5.13075 5.97636-4.64828 6.19425-4.16062 6.30838-3.64185 6.30838-3.09193 6.30838-2.53685 6.19425-2.01806 5.97636-1.53559 5.75328-1.04794 5.42646-0.653665 5.00105-0.352771 4.57047-0.0622538 4.05168 0.083005 3.44471 0.083005ZM3.44471-0.767797C3.8286-0.767797 4.16062-0.871553 4.44077-1.07907 4.71572-1.29695 4.92843-1.58229 5.08405-1.92986 5.23451-2.27227 5.31232-2.66653 5.31232-3.11269 5.31232-3.77673 5.14631-4.32145 4.81429-4.75203 4.48227-5.19301 4.02574-5.41607 3.44471-5.41607 3.05562-5.41607 2.7236-5.31232 2.44865-5.10481 2.1685-4.8973 1.95581-4.61197 1.80537-4.254 1.64973-3.90643 1.5771-3.52771 1.5771-3.11269 1.5771-2.44865 1.74311-1.88837 2.07513-1.43183 2.40715-0.985685 2.86367-0.767797 3.44471-0.767797Z" fill="#001D3D" transform="matrix(1.00099 0 0 1 690.983 605)"/><path d="M3.46547 0.083005C2.84292 0.083005 2.30858-0.0674415 1.86761-0.373523 1.43702-0.674415 1.11019-1.0635 0.892304-1.53559 0.684792-2.01806 0.581035-2.53685 0.581035-3.09193 0.581035-3.64185 0.684792-4.15544 0.892304-4.62754 1.11019-5.11 1.43702-5.50427 1.86761-5.81035 2.30858-6.11124 2.84292-6.26688 3.46547-6.26688 4.254-6.26688 4.87655-6.03862 5.33307-5.58208 5.78961-5.12557 6.05937-4.56528 6.14237-3.90124L5.16706-3.90124C5.09444-4.3422 4.91804-4.70016 4.62754-4.9803 4.34739-5.27082 3.96868-5.41607 3.48621-5.41607 2.86367-5.41607 2.39158-5.19301 2.07513-4.75203 1.75348-4.30589 1.59784-3.75597 1.59784-3.09193 1.59784-2.42789 1.75348-1.87281 2.07513-1.43183 2.39158-0.985685 2.86367-0.767797 3.48621-0.767797 3.96868-0.767797 4.34739-0.90268 4.62754-1.18282 4.91804-1.45778 5.09444-1.82611 5.16706-2.28264L6.14237-2.28264C6.05937-1.6186 5.78961-1.05831 5.33307-0.601786 4.87655-0.145259 4.254 0.083005 3.46547 0.083005Z" fill="#001D3D" transform="matrix(1.00099 0 0 1 698.624 605)"/><path d="M6.18388 0 5.16706 0 5.16706-1.16207 5.10481-1.16207C4.9388-0.798923 4.68978-0.49803 4.35776-0.249015 4.02574-0.0103756 3.61591 0.103756 3.13345 0.103756 2.61985 0.103756 2.18926-0.0207513 1.84686-0.269766 1.51484-0.518781 1.26583-0.835238 1.09982-1.22432 0.944183-1.62379 0.871553-2.05438 0.871553-2.5109L0.871553-6.10087 1.86761-6.10087 1.86761-2.63542C1.86761-2.03882 2.01287-1.58229 2.3034-1.26583 2.60429-0.944183 3.00893-0.788548 3.50696-0.788548 4.00499-0.788548 4.40446-0.959745 4.71054-1.30733 5.01143-1.64973 5.16706-2.09587 5.16706-2.63542L5.16706-6.10087 6.18388-6.10087Z" fill="#001D3D" transform="matrix(1.00099 0 0 1 706.045 605)"/><path d="M0.871553-6.10087 1.84686-6.10087 1.84686-4.9803 1.95062-4.9803C1.96099-5.06331 2.03882-5.19819 2.17888-5.39533 2.31377-5.60284 2.52128-5.79479 2.80143-5.97636 3.09193-6.16831 3.4499-6.26688 3.88049-6.26688 4.32145-6.26688 4.68978-6.16312 4.9803-5.95562 5.28119-5.74809 5.50427-5.51983 5.64434-5.27082 5.79479-5.03218 5.87261-4.88692 5.87261-4.83504L5.97636-4.83504C6.0853-5.09444 6.29801-5.40052 6.61966-5.74809 6.93611-6.0905 7.42895-6.26688 8.09299-6.26688 8.59102-6.26688 9.00605-6.14237 9.33807-5.89336 9.67009-5.64434 9.90873-5.31751 10.0644-4.91804 10.2304-4.52897 10.3134-4.10875 10.3134-3.65222L10.3134 0 9.31731 0 9.31731-3.56922C9.31731-4.15025 9.16168-4.59121 8.86079-4.8973 8.55471-5.19819 8.18119-5.35382 7.74021-5.35382 7.26813-5.35382 6.87385-5.19301 6.5574-4.87655 6.23575-4.57047 6.08011-4.13469 6.08011-3.56922L6.08011 0 5.10481 0 5.10481-3.56922C5.10481-4.15025 4.94399-4.59121 4.62754-4.8973 4.32145-5.19819 3.94793-5.35382 3.50696-5.35382 3.05044-5.35382 2.65616-5.19301 2.32414-4.87655 2.00249-4.57047 1.84686-4.13469 1.84686-3.56922L1.84686 0 0.871553 0Z" fill="#001D3D" transform="matrix(1.00099 0 0 1 713.768 605)"/><path d="M3.44471 0.083005C2.82217 0.083005 2.29301-0.0674415 1.86761-0.373523 1.43702-0.674415 1.11019-1.06869 0.892304-1.55635 0.684792-2.03882 0.581035-2.55241 0.581035-3.09193 0.581035-3.64185 0.684792-4.15544 0.892304-4.62754 1.11019-5.11 1.43702-5.50427 1.86761-5.81035 2.29301-6.11124 2.82217-6.26688 3.44471-6.26688 4.25919-6.26688 4.90767-5.98673 5.39533-5.43683 5.89336-4.8973 6.14237-4.10875 6.14237-3.07119L6.14237-2.80143 1.5771-2.80143 1.5771-2.71842C1.5771-2.3864 1.64973-2.06475 1.80537-1.76385 1.97138-1.45778 2.18926-1.20876 2.46941-1.01681 2.74436-0.835238 3.06081-0.747045 3.42395-0.747045 3.82342-0.747045 4.16062-0.840425 4.44077-1.03756 4.73129-1.24508 4.94399-1.52003 5.08405-1.86761L6.05937-1.86761C5.90373-1.31252 5.60803-0.850802 5.16706-0.477279 4.72091-0.103756 4.15025 0.083005 3.44471 0.083005ZM5.16706-3.50696C5.13594-4.19695 4.96474-4.69498 4.64828-5.00105 4.3422-5.31751 3.94274-5.47833 3.44471-5.47833 2.88961-5.47833 2.44865-5.29158 2.11663-4.91804 1.79498-4.5549 1.62897-4.08799 1.6186-3.50696Z" fill="#001D3D" transform="matrix(1.00099 0 0 1 725.618 605)"/><path d="M0.871553-6.10087 1.86761-6.10087 1.86761-5.00105 1.95062-5.00105C2.10106-5.35902 2.35008-5.65471 2.69766-5.89336 3.05562-6.14237 3.48621-6.26688 3.98424-6.26688 4.49264-6.26688 4.92323-6.14237 5.27082-5.89336 5.62878-5.65471 5.89336-5.33826 6.05937-4.9388 6.22538-4.53415 6.30838-4.10875 6.30838-3.65222L6.30838 0 5.31232 0 5.31232-3.52771C5.31232-4.11912 5.1515-4.57565 4.83504-4.8973 4.5134-5.21375 4.10875-5.37458 3.61072-5.37458 3.08156-5.37458 2.66135-5.19819 2.34489-4.85579 2.02325-4.50821 1.86761-4.06725 1.86761-3.52771L1.86761 0 0.871553 0Z" fill="#001D3D" transform="matrix(1.00099 0 0 1 733.121 605)"/><path d="M2.5109-5.31232 2.5109-1.76385C2.5109-1.47335 2.51609-1.25545 2.53165-1.12057 2.55759-0.99606 2.63542-0.892304 2.75991-0.809299 2.88443-0.726294 3.07638-0.684792 3.34095-0.684792 3.53291-0.684792 3.73523-0.71073 3.94274-0.767797L3.94274-0.0622538C3.88567-0.0311269 3.76636-0.0103756 3.58996 0 3.4084 0.025939 3.22163 0.0415025 3.02968 0.0415025 2.58353 0.0415025 2.25151-0.0207513 2.03362-0.145259 1.81055-0.269766 1.66529-0.440964 1.59784-0.66404 1.54079-0.881928 1.51484-1.17245 1.51484-1.53559L1.51484-5.31232 0.373523-5.31232 0.373523-6.10087 1.51484-6.10087 1.51484-8.11375 2.5109-8.11375 2.5109-6.10087 3.94274-6.10087 3.94274-5.31232Z" fill="#001D3D" transform="matrix(1.00099 0 0 1 740.959 605)"/><path d="M3.44471 0.083005C2.83254 0.083005 2.31377-0.0622538 1.88837-0.352771 1.45778-0.653665 1.13094-1.04794 0.913055-1.53559 0.689979-2.01806 0.581035-2.53685 0.581035-3.09193 0.581035-3.64185 0.689979-4.16062 0.913055-4.64828 1.13094-5.13075 1.45778-5.51983 1.88837-5.81035 2.31377-6.11124 2.83254-6.26688 3.44471-6.26688 4.06725-6.26688 4.59121-6.11124 5.0218-5.81035 5.4472-5.51983 5.76885-5.13075 5.97636-4.64828 6.19425-4.16062 6.30838-3.64185 6.30838-3.09193 6.30838-2.53685 6.19425-2.01806 5.97636-1.53559 5.75328-1.04794 5.42646-0.653665 5.00105-0.352771 4.57047-0.0622538 4.05168 0.083005 3.44471 0.083005ZM3.44471-0.767797C3.8286-0.767797 4.16062-0.871553 4.44077-1.07907 4.71572-1.29695 4.92843-1.58229 5.08405-1.92986 5.23451-2.27227 5.31232-2.66653 5.31232-3.11269 5.31232-3.77673 5.14631-4.32145 4.81429-4.75203 4.48227-5.19301 4.02574-5.41607 3.44471-5.41607 3.05562-5.41607 2.7236-5.31232 2.44865-5.10481 2.1685-4.8973 1.95581-4.61197 1.80537-4.254 1.64973-3.90643 1.5771-3.52771 1.5771-3.11269 1.5771-2.44865 1.74311-1.88837 2.07513-1.43183 2.40715-0.985685 2.86367-0.767797 3.44471-0.767797Z" fill="#001D3D" transform="matrix(1.00099 0 0 1 746.258 605)"/><path d="M2.94668 0.083005C2.45902 0.083005 2.03362-0.0103756 1.6601-0.207513 1.29695-0.415025 1.022-0.669228 0.83005-0.975309 0.648476-1.2762 0.560284-1.60303 0.560284-1.95062L0.560284-2.01287 1.55635-2.01287 1.55635-1.95062C1.55635-1.75348 1.60303-1.56153 1.7016-1.36958 1.81055-1.18801 1.97656-1.03756 2.19963-0.913055 2.41752-0.798923 2.6821-0.747045 2.98818-0.747045 3.3617-0.747045 3.66259-0.835238 3.90124-1.01681 4.15025-1.1932 4.27476-1.44222 4.27476-1.76385 4.27476-2.02325 4.17619-2.23076 3.98424-2.3864 3.80267-2.53685 3.56922-2.63542 3.2787-2.67691L2.46941-2.80143C1.97138-2.88443 1.54597-3.05562 1.20357-3.3202 0.871553-3.57959 0.705543-3.96868 0.705543-4.48227 0.705543-5.04774 0.90268-5.48353 1.30733-5.78961 1.72236-6.10606 2.24114-6.26688 2.86367-6.26688 3.33057-6.26688 3.73523-6.1735 4.06725-5.99711 4.40964-5.8311 4.67422-5.60284 4.85579-5.31232 5.03218-5.03218 5.12557-4.73129 5.12557-4.39927L5.12557-4.35776 4.12951-4.35776 4.12951-4.37852C4.12951-4.52897 4.08799-4.68978 4.00499-4.85579 3.92198-5.03218 3.78192-5.17744 3.58996-5.29158 3.39283-5.41607 3.14382-5.47833 2.84292-5.47833 2.46941-5.47833 2.1685-5.38495 1.95062-5.20857 1.72754-5.027 1.6186-4.79355 1.6186-4.50302 1.6186-4.26439 1.7068-4.06725 1.88837-3.90124 2.06475-3.7456 2.28783-3.65222 2.55241-3.61072L3.42395-3.46547C3.93237-3.38246 4.36296-3.20607 4.71054-2.94668 5.05293-2.6821 5.22932-2.28783 5.22932-1.76385 5.22932-1.40071 5.13075-1.07907 4.9388-0.788548 4.74166-0.508405 4.4719-0.295705 4.12951-0.145259 3.78192 0.00518781 3.38764 0.083005 2.94668 0.083005Z" fill="#001D3D" transform="matrix(1.00099 0 0 1 753.899 605)"/><path d="M1.86761-7.20069 1.86761-4.54453 5.37458-4.54453 5.37458-3.73523 1.86761-3.73523 1.86761-0.913055 5.85185-0.913055 5.85185 0 0.871553 0 0.871553-8.11375 5.85185-8.11375 5.85185-7.20069Z" fill="#001D3D" transform="matrix(1.00099 0 0 1 763.802 605)"/><path d="M2.42789 0.0415025C1.97138 0.0415025 1.62897-0.025939 1.41109-0.16601 1.18801-0.316456 1.04794-0.508405 0.99606-0.747045 0.938994-0.980497 0.913055-1.28658 0.913055-1.6601L0.913055-8.67403 1.90912-8.67403 1.90912-1.82611C1.90912-1.52003 1.91949-1.29695 1.95062-1.16207 1.97656-1.022 2.044-0.90268 2.15813-0.809299 2.28264-0.726294 2.47459-0.684792 2.73917-0.684792 2.90518-0.684792 3.05044-0.695168 3.17494-0.726294L3.17494-0.0207513C2.96744 0.0207513 2.71842 0.0415025 2.42789 0.0415025Z" fill="#001D3D" transform="matrix(1.00099 0 0 1 771.142 605)"/><path d="M3.44471 0.083005C2.82217 0.083005 2.29301-0.0674415 1.86761-0.373523 1.43702-0.674415 1.11019-1.06869 0.892304-1.55635 0.684792-2.03882 0.581035-2.55241 0.581035-3.09193 0.581035-3.64185 0.684792-4.15544 0.892304-4.62754 1.11019-5.11 1.43702-5.50427 1.86761-5.81035 2.29301-6.11124 2.82217-6.26688 3.44471-6.26688 4.25919-6.26688 4.90767-5.98673 5.39533-5.43683 5.89336-4.8973 6.14237-4.10875 6.14237-3.07119L6.14237-2.80143 1.5771-2.80143 1.5771-2.71842C1.5771-2.3864 1.64973-2.06475 1.80537-1.76385 1.97138-1.45778 2.18926-1.20876 2.46941-1.01681 2.74436-0.835238 3.06081-0.747045 3.42395-0.747045 3.82342-0.747045 4.16062-0.840425 4.44077-1.03756 4.73129-1.24508 4.94399-1.52003 5.08405-1.86761L6.05937-1.86761C5.90373-1.31252 5.60803-0.850802 5.16706-0.477279 4.72091-0.103756 4.15025 0.083005 3.44471 0.083005ZM5.16706-3.50696C5.13594-4.19695 4.96474-4.69498 4.64828-5.00105 4.3422-5.31751 3.94274-5.47833 3.44471-5.47833 2.88961-5.47833 2.44865-5.29158 2.11663-4.91804 1.79498-4.5549 1.62897-4.08799 1.6186-3.50696Z" fill="#001D3D" transform="matrix(1.00099 0 0 1 775.525 605)"/><path d="M3.46547 0.083005C2.84292 0.083005 2.30858-0.0674415 1.86761-0.373523 1.43702-0.674415 1.11019-1.0635 0.892304-1.53559 0.684792-2.01806 0.581035-2.53685 0.581035-3.09193 0.581035-3.64185 0.684792-4.15544 0.892304-4.62754 1.11019-5.11 1.43702-5.50427 1.86761-5.81035 2.30858-6.11124 2.84292-6.26688 3.46547-6.26688 4.254-6.26688 4.87655-6.03862 5.33307-5.58208 5.78961-5.12557 6.05937-4.56528 6.14237-3.90124L5.16706-3.90124C5.09444-4.3422 4.91804-4.70016 4.62754-4.9803 4.34739-5.27082 3.96868-5.41607 3.48621-5.41607 2.86367-5.41607 2.39158-5.19301 2.07513-4.75203 1.75348-4.30589 1.59784-3.75597 1.59784-3.09193 1.59784-2.42789 1.75348-1.87281 2.07513-1.43183 2.39158-0.985685 2.86367-0.767797 3.48621-0.767797 3.96868-0.767797 4.34739-0.90268 4.62754-1.18282 4.91804-1.45778 5.09444-1.82611 5.16706-2.28264L6.14237-2.28264C6.05937-1.6186 5.78961-1.05831 5.33307-0.601786 4.87655-0.145259 4.254 0.083005 3.46547 0.083005Z" fill="#001D3D" transform="matrix(1.00099 0 0 1 783.028 605)"/><path d="M2.5109-5.31232 2.5109-1.76385C2.5109-1.47335 2.51609-1.25545 2.53165-1.12057 2.55759-0.99606 2.63542-0.892304 2.75991-0.809299 2.88443-0.726294 3.07638-0.684792 3.34095-0.684792 3.53291-0.684792 3.73523-0.71073 3.94274-0.767797L3.94274-0.0622538C3.88567-0.0311269 3.76636-0.0103756 3.58996 0 3.4084 0.025939 3.22163 0.0415025 3.02968 0.0415025 2.58353 0.0415025 2.25151-0.0207513 2.03362-0.145259 1.81055-0.269766 1.66529-0.440964 1.59784-0.66404 1.54079-0.881928 1.51484-1.17245 1.51484-1.53559L1.51484-5.31232 0.373523-5.31232 0.373523-6.10087 1.51484-6.10087 1.51484-8.11375 2.5109-8.11375 2.5109-6.10087 3.94274-6.10087 3.94274-5.31232Z" fill="#001D3D" transform="matrix(1.00099 0 0 1 790.449 605)"/><path d="M0.83005-6.10087 1.82611-6.10087 1.82611-5.12557 1.88837-5.12557C1.98175-5.40052 2.16332-5.62878 2.42789-5.81035 2.68729-6.0023 3.01412-6.10087 3.40321-6.10087 3.52771-6.10087 3.62109-6.0905 3.69372-6.08011 3.77673-6.06456 3.85973-6.0438 3.94274-6.01786L3.92198-5.04256C3.79749-5.08405 3.68335-5.11 3.58996-5.12557 3.50696-5.13594 3.39283-5.14631 3.25794-5.14631 2.3034-5.14631 1.82611-4.57565 1.82611-3.44471L1.82611 0 0.83005 0Z" fill="#001D3D" transform="matrix(1.00099 0 0 1 795.748 605)"/><path d="M3.44471 0.083005C2.83254 0.083005 2.31377-0.0622538 1.88837-0.352771 1.45778-0.653665 1.13094-1.04794 0.913055-1.53559 0.689979-2.01806 0.581035-2.53685 0.581035-3.09193 0.581035-3.64185 0.689979-4.16062 0.913055-4.64828 1.13094-5.13075 1.45778-5.51983 1.88837-5.81035 2.31377-6.11124 2.83254-6.26688 3.44471-6.26688 4.06725-6.26688 4.59121-6.11124 5.0218-5.81035 5.4472-5.51983 5.76885-5.13075 5.97636-4.64828 6.19425-4.16062 6.30838-3.64185 6.30838-3.09193 6.30838-2.53685 6.19425-2.01806 5.97636-1.53559 5.75328-1.04794 5.42646-0.653665 5.00105-0.352771 4.57047-0.0622538 4.05168 0.083005 3.44471 0.083005ZM3.44471-0.767797C3.8286-0.767797 4.16062-0.871553 4.44077-1.07907 4.71572-1.29695 4.92843-1.58229 5.08405-1.92986 5.23451-2.27227 5.31232-2.66653 5.31232-3.11269 5.31232-3.77673 5.14631-4.32145 4.81429-4.75203 4.48227-5.19301 4.02574-5.41607 3.44471-5.41607 3.05562-5.41607 2.7236-5.31232 2.44865-5.10481 2.1685-4.8973 1.95581-4.61197 1.80537-4.254 1.64973-3.90643 1.5771-3.52771 1.5771-3.11269 1.5771-2.44865 1.74311-1.88837 2.07513-1.43183 2.40715-0.985685 2.86367-0.767797 3.44471-0.767797ZM3.09193-6.93092 4.21251-9.00605 5.29158-9.00605 3.88049-6.93092Z" fill="#001D3D" transform="matrix(1.00099 0 0 1 800.583 605)"/><path d="M0.871553-6.10087 1.86761-6.10087 1.86761-5.00105 1.95062-5.00105C2.10106-5.35902 2.35008-5.65471 2.69766-5.89336 3.05562-6.14237 3.48621-6.26688 3.98424-6.26688 4.49264-6.26688 4.92323-6.14237 5.27082-5.89336 5.62878-5.65471 5.89336-5.33826 6.05937-4.9388 6.22538-4.53415 6.30838-4.10875 6.30838-3.65222L6.30838 0 5.31232 0 5.31232-3.52771C5.31232-4.11912 5.1515-4.57565 4.83504-4.8973 4.5134-5.21375 4.10875-5.37458 3.61072-5.37458 3.08156-5.37458 2.66135-5.19819 2.34489-4.85579 2.02325-4.50821 1.86761-4.06725 1.86761-3.52771L1.86761 0 0.871553 0Z" fill="#001D3D" transform="matrix(1.00099 0 0 1 808.224 605)"/><path d="M0.954558-6.10087 1.95062-6.10087 1.95062 0 0.954558 0ZM1.43183-7.24218C1.25026-7.24218 1.09982-7.30444 0.975309-7.42895 0.850802-7.55346 0.788548-7.7039 0.788548-7.88548 0.788548-8.06186 0.850802-8.2175 0.975309-8.34201 1.09982-8.46651 1.25026-8.52877 1.43183-8.52877 1.62379-8.52877 1.78461-8.46651 1.90912-8.34201 2.03362-8.2175 2.09587-8.06186 2.09587-7.88548 2.09587-7.7039 2.03362-7.55346 1.90912-7.42895 1.78461-7.30444 1.62379-7.24218 1.43183-7.24218Z" fill="#001D3D" transform="matrix(1.00099 0 0 1 816.063 605)"/><path d="M3.46547 0.083005C2.84292 0.083005 2.30858-0.0674415 1.86761-0.373523 1.43702-0.674415 1.11019-1.0635 0.892304-1.53559 0.684792-2.01806 0.581035-2.53685 0.581035-3.09193 0.581035-3.64185 0.684792-4.15544 0.892304-4.62754 1.11019-5.11 1.43702-5.50427 1.86761-5.81035 2.30858-6.11124 2.84292-6.26688 3.46547-6.26688 4.254-6.26688 4.87655-6.03862 5.33307-5.58208 5.78961-5.12557 6.05937-4.56528 6.14237-3.90124L5.16706-3.90124C5.09444-4.3422 4.91804-4.70016 4.62754-4.9803 4.34739-5.27082 3.96868-5.41607 3.48621-5.41607 2.86367-5.41607 2.39158-5.19301 2.07513-4.75203 1.75348-4.30589 1.59784-3.75597 1.59784-3.09193 1.59784-2.42789 1.75348-1.87281 2.07513-1.43183 2.39158-0.985685 2.86367-0.767797 3.48621-0.767797 3.96868-0.767797 4.34739-0.90268 4.62754-1.18282 4.91804-1.45778 5.09444-1.82611 5.16706-2.28264L6.14237-2.28264C6.05937-1.6186 5.78961-1.05831 5.33307-0.601786 4.87655-0.145259 4.254 0.083005 3.46547 0.083005Z" fill="#001D3D" transform="matrix(1.00099 0 0 1 819.705 605)"/><path d="M3.44471 0.083005C2.83254 0.083005 2.31377-0.0622538 1.88837-0.352771 1.45778-0.653665 1.13094-1.04794 0.913055-1.53559 0.689979-2.01806 0.581035-2.53685 0.581035-3.09193 0.581035-3.64185 0.689979-4.16062 0.913055-4.64828 1.13094-5.13075 1.45778-5.51983 1.88837-5.81035 2.31377-6.11124 2.83254-6.26688 3.44471-6.26688 4.06725-6.26688 4.59121-6.11124 5.0218-5.81035 5.4472-5.51983 5.76885-5.13075 5.97636-4.64828 6.19425-4.16062 6.30838-3.64185 6.30838-3.09193 6.30838-2.53685 6.19425-2.01806 5.97636-1.53559 5.75328-1.04794 5.42646-0.653665 5.00105-0.352771 4.57047-0.0622538 4.05168 0.083005 3.44471 0.083005ZM3.44471-0.767797C3.8286-0.767797 4.16062-0.871553 4.44077-1.07907 4.71572-1.29695 4.92843-1.58229 5.08405-1.92986 5.23451-2.27227 5.31232-2.66653 5.31232-3.11269 5.31232-3.77673 5.14631-4.32145 4.81429-4.75203 4.48227-5.19301 4.02574-5.41607 3.44471-5.41607 3.05562-5.41607 2.7236-5.31232 2.44865-5.10481 2.1685-4.8973 1.95581-4.61197 1.80537-4.254 1.64973-3.90643 1.5771-3.52771 1.5771-3.11269 1.5771-2.44865 1.74311-1.88837 2.07513-1.43183 2.40715-0.985685 2.86367-0.767797 3.44471-0.767797Z" fill="#001D3D" transform="matrix(1.00099 0 0 1 827.125 605)"/><path d="M2.94668 0.083005C2.45902 0.083005 2.03362-0.0103756 1.6601-0.207513 1.29695-0.415025 1.022-0.669228 0.83005-0.975309 0.648476-1.2762 0.560284-1.60303 0.560284-1.95062L0.560284-2.01287 1.55635-2.01287 1.55635-1.95062C1.55635-1.75348 1.60303-1.56153 1.7016-1.36958 1.81055-1.18801 1.97656-1.03756 2.19963-0.913055 2.41752-0.798923 2.6821-0.747045 2.98818-0.747045 3.3617-0.747045 3.66259-0.835238 3.90124-1.01681 4.15025-1.1932 4.27476-1.44222 4.27476-1.76385 4.27476-2.02325 4.17619-2.23076 3.98424-2.3864 3.80267-2.53685 3.56922-2.63542 3.2787-2.67691L2.46941-2.80143C1.97138-2.88443 1.54597-3.05562 1.20357-3.3202 0.871553-3.57959 0.705543-3.96868 0.705543-4.48227 0.705543-5.04774 0.90268-5.48353 1.30733-5.78961 1.72236-6.10606 2.24114-6.26688 2.86367-6.26688 3.33057-6.26688 3.73523-6.1735 4.06725-5.99711 4.40964-5.8311 4.67422-5.60284 4.85579-5.31232 5.03218-5.03218 5.12557-4.73129 5.12557-4.39927L5.12557-4.35776 4.12951-4.35776 4.12951-4.37852C4.12951-4.52897 4.08799-4.68978 4.00499-4.85579 3.92198-5.03218 3.78192-5.17744 3.58996-5.29158 3.39283-5.41607 3.14382-5.47833 2.84292-5.47833 2.46941-5.47833 2.1685-5.38495 1.95062-5.20857 1.72754-5.027 1.6186-4.79355 1.6186-4.50302 1.6186-4.26439 1.7068-4.06725 1.88837-3.90124 2.06475-3.7456 2.28783-3.65222 2.55241-3.61072L3.42395-3.46547C3.93237-3.38246 4.36296-3.20607 4.71054-2.94668 5.05293-2.6821 5.22932-2.28783 5.22932-1.76385 5.22932-1.40071 5.13075-1.07907 4.9388-0.788548 4.74166-0.508405 4.4719-0.295705 4.12951-0.145259 3.78192 0.00518781 3.38764 0.083005 2.94668 0.083005Z" fill="#001D3D" transform="matrix(1.00099 0 0 1 834.767 605)"/></g></svg>